<svg width="396" height="270" viewBox="0 0 396 270" fill="none" xmlns="http://www.w3.org/2000/svg">
<g clip-path="url(#clip0_8_2)">
<path d="M247.978 85.6709H238.798C238.503 85.6719 238.219 85.5629 238.001 85.3654C237.783 85.1678 237.646 84.896 237.619 84.6033L235.781 65.8026H250.995L249.158 84.603C249.13 84.8958 248.994 85.1677 248.775 85.3653C248.557 85.5628 248.273 85.6719 247.978 85.6709Z" fill="#E6E6E6"/>
<path d="M250.971 68.1678H235.805C235.491 68.1675 235.19 68.0427 234.968 67.821C234.746 67.5993 234.621 67.2987 234.62 66.9852V64.1469C234.621 63.8333 234.746 63.5327 234.968 63.311C235.19 63.0893 235.491 62.9646 235.805 62.9642H250.971C251.285 62.9646 251.586 63.0893 251.808 63.311C252.03 63.5327 252.155 63.8333 252.156 64.1469V66.9852C252.155 67.2987 252.03 67.5993 251.808 67.821C251.586 68.0427 251.285 68.1674 250.971 68.1678Z" fill="#CCCCCC"/>
<path d="M140.568 65.4741H104.199V54.4537C115.692 46.4705 125.874 47.1645 139.269 55.102L140.568 65.4741Z" fill="#F9A826"/>
<path d="M95.7773 261.221L87.815 261.22L86.6246 230.565L95.7786 230.566L95.7773 261.221Z" fill="#FFB8B8"/>
<path d="M97.8076 268.924L72.1343 268.923V268.599C72.1343 267.289 72.3928 265.992 72.895 264.782C73.3971 263.572 74.1332 262.472 75.0611 261.546C75.989 260.62 77.0906 259.885 78.303 259.384C79.5154 258.883 80.8149 258.625 82.1271 258.625H82.1278L97.808 258.626L97.8076 268.924Z" fill="#2F2E41"/>
<path d="M140.624 261.221L148.586 261.22L149.777 230.565L140.623 230.566L140.624 261.221Z" fill="#FFB8B8"/>
<path d="M138.593 258.626L154.273 258.625H154.274C155.586 258.625 156.886 258.883 158.098 259.384C159.311 259.885 160.412 260.62 161.34 261.546C162.268 262.472 163.004 263.572 163.506 264.782C164.008 265.992 164.267 267.289 164.267 268.599V268.923L138.594 268.924L138.593 258.626Z" fill="#2F2E41"/>
<path d="M140.833 257.292C140.169 257.289 139.525 257.062 139.007 256.648C138.488 256.233 138.126 255.655 137.98 255.008L118.245 169.088C118.202 168.87 118.083 168.674 117.909 168.535C117.735 168.396 117.517 168.322 117.294 168.327H117.289C117.065 168.323 116.847 168.398 116.674 168.539C116.5 168.68 116.382 168.878 116.341 169.098L98.2182 254.438C98.0769 255.091 97.7164 255.676 97.1964 256.097C96.6765 256.517 96.0283 256.748 95.3591 256.75H86.7261C86.3278 256.75 85.9337 256.669 85.568 256.511C85.2023 256.354 84.8727 256.123 84.5995 255.834C84.3263 255.545 84.1152 255.203 83.9792 254.829C83.8432 254.455 83.7852 254.058 83.8087 253.661L90.2388 145.495L92.8263 144.731L92.8749 144.732L143.7 145.176L154.524 253.222C154.562 253.608 154.523 253.997 154.408 254.367C154.294 254.737 154.107 255.08 153.858 255.377C153.609 255.674 153.303 255.919 152.959 256.096C152.614 256.274 152.238 256.382 151.851 256.413L141.068 257.282C140.989 257.288 140.911 257.292 140.833 257.292Z" fill="#2F2E41"/>
<path d="M119.845 45.723C128.654 45.723 135.796 38.5945 135.796 29.8011C135.796 21.0076 128.654 13.8792 119.845 13.8792C111.035 13.8792 103.894 21.0076 103.894 29.8011C103.894 38.5945 111.035 45.723 119.845 45.723Z" fill="#FFB8B8"/>
<path d="M110.073 157.355C107.275 157.389 104.487 156.998 101.807 156.194C99.4233 155.476 97.2118 154.279 95.3088 152.676C93.4058 151.074 91.8515 149.099 90.7416 146.875C90.3899 146.205 90.3119 145.426 90.524 144.7C92.2832 138.707 100.784 107.554 95.3604 82.7895C94.5947 79.3492 94.5311 75.7903 95.1733 72.3249C95.8154 68.8595 97.1502 65.5588 99.098 62.6194C101.001 59.7032 103.472 57.1992 106.365 55.257C109.258 53.3148 112.513 51.9741 115.936 51.3148L115.937 51.3141C116.836 51.1388 117.741 50.9951 118.625 50.8862C122.409 50.4213 126.249 50.7969 129.871 51.9863C133.493 53.1758 136.806 55.1495 139.575 57.7663C142.425 60.4346 144.65 63.6988 146.088 67.3254C147.527 70.9521 148.145 74.8514 147.898 78.7442L143.729 145.517C143.7 146.018 143.542 146.503 143.269 146.923C142.995 147.344 142.617 147.687 142.172 147.918C137.371 150.429 122.948 157.355 110.073 157.355Z" fill="#3F3D56"/>
<path d="M137.865 18.081C136.208 13.9244 133.173 10.4608 129.266 8.26835C125.359 6.0759 120.817 5.28721 116.399 6.03394L121.428 10.0906C115.179 10.3007 108.602 9.85406 104.14 14.2261C105.56 14.1867 107.422 17.2193 108.842 17.18C106.187 17.2324 103.779 19.0948 102.606 21.4735C101.519 23.9173 101.265 26.6491 101.882 29.2507C102.407 31.8498 106.408 37.9385 107.485 40.362C107.299 34.0284 119.791 18.9212 125.891 20.4978C122.792 21.6456 120.103 23.6836 118.163 26.355C122.312 24.2645 127.006 23.498 131.607 24.1593C132.657 24.3998 133.741 24.4603 134.812 24.3384C135.468 24.2088 136.08 23.9134 136.59 23.4805C137.099 23.0475 137.489 22.4914 137.721 21.8653C137.954 21.2392 138.022 20.5641 137.919 19.9043C137.816 19.2445 137.545 18.6221 137.132 18.0966L137.865 18.081Z" fill="#2F2E41"/>
<path d="M108.974 153.345C108.571 153.344 108.173 153.26 107.804 153.098L77.539 139.913C76.8962 139.637 76.3744 139.14 76.0697 138.511C75.7651 137.883 75.698 137.166 75.8808 136.492L95.9163 60.9442C96.2888 59.5385 96.9385 58.2211 97.8273 57.069C98.7161 55.917 99.8262 54.9535 101.093 54.2349C102.359 53.5164 103.756 53.0572 105.203 52.8842C106.649 52.7113 108.116 52.8281 109.516 53.2278L117.528 55.51L111.888 150.597C111.859 151.066 111.717 151.521 111.474 151.924C111.232 152.327 110.896 152.666 110.494 152.911C110.037 153.194 109.511 153.344 108.974 153.345Z" fill="#F9A826"/>
<path d="M164.988 136.491L163.656 131.48L161.728 124.194L160.799 120.699L158.87 113.432L144.952 60.9429C144.581 59.5366 143.932 58.2184 143.043 57.0658C142.155 55.9132 141.045 54.9493 139.778 54.2307C138.511 53.5122 137.113 53.0534 135.667 52.8813C134.22 52.7092 132.753 52.8273 131.353 53.2286L123.345 55.5105L127.313 122.391L127.722 129.373L127.982 133.775V133.781L128.397 140.724L128.982 150.597C129.03 151.338 129.357 152.034 129.898 152.544C130.439 153.054 131.154 153.341 131.898 153.346C132.301 153.343 132.698 153.26 133.067 153.099L163.332 139.914C163.975 139.639 164.497 139.141 164.801 138.512C165.106 137.883 165.172 137.165 164.988 136.491Z" fill="#F9A826"/>
<path d="M160.799 120.699L127.723 129.373L127.313 122.391L158.87 113.432L160.799 120.699Z" fill="#CCCCCC"/>
<path d="M163.656 131.48L128.397 140.724L127.982 133.781V133.775L161.728 124.193L163.656 131.48Z" fill="#CCCCCC"/>
<path d="M113.149 123.895L112.739 130.747L80.2996 121.101L82.2018 113.932L113.149 123.895Z" fill="#CCCCCC"/>
<path d="M112.473 135.259L79.3702 124.595L77.4673 131.785L112.07 142.073L112.473 135.259Z" fill="#CCCCCC"/>
<path d="M79.9476 142.425C80.9345 142.168 81.8529 141.698 82.6382 141.048C83.4234 140.399 84.0564 139.585 84.4926 138.665C84.9287 137.744 85.1574 136.74 85.1624 135.722C85.1675 134.704 84.9489 133.697 84.522 132.772L100.084 84.0063L89.0491 81.6995L74.7813 129.511C73.2727 130.329 72.1174 131.672 71.5343 133.284C70.9512 134.897 70.9809 136.666 71.6177 138.258C72.2545 139.85 73.4542 141.154 74.9894 141.922C76.5247 142.69 78.2888 142.869 79.9476 142.425Z" fill="#FFB8B8"/>
<path d="M100.516 60.0325C103.685 60.3552 105.467 63.9114 104.679 68.3394L100.899 89.5883C100.615 91.1812 99.3021 92.4424 98.2105 92.17L85.4225 88.9793C84.4384 88.7337 84.076 87.3383 84.6337 85.942L92.3106 66.7188C93.9779 62.5442 97.444 59.7197 100.516 60.0325Z" fill="#3F3D56"/>
<path d="M119.786 3.65692e-10C125.185 0.000577978 130.371 2.09847 134.247 5.84944C138.123 9.60041 140.384 14.7099 140.552 20.096H144.465C144.81 20.096 145.14 20.2327 145.384 20.4758C145.627 20.7189 145.764 21.0487 145.764 21.3926V26.5786C145.764 26.9225 145.627 27.2522 145.384 27.4954C145.14 27.7385 144.81 27.8751 144.465 27.8751H100.302C99.9578 27.8751 99.6275 27.7385 99.3839 27.4954C99.1403 27.2522 99.0034 26.9225 99.0034 26.5786V20.7443C99.0034 18.0201 99.541 15.3226 100.585 12.8058C101.63 10.2889 103.161 8.0021 105.09 6.07582C107.02 4.14953 109.311 2.62151 111.833 1.57902C114.354 0.536534 117.057 -1.61746e-05 119.786 3.65692e-10Z" fill="#F9A826"/>
<path d="M122.269 128.229H113.089C112.794 128.23 112.51 128.121 112.292 127.923C112.074 127.726 111.937 127.454 111.91 127.161L110.072 108.361H125.286L123.449 127.161C123.421 127.454 123.285 127.726 123.066 127.923C122.848 128.121 122.564 128.23 122.269 128.229Z" fill="#E6E6E6"/>
<path d="M125.262 110.726H110.096C109.782 110.725 109.481 110.601 109.259 110.379C109.037 110.157 108.912 109.857 108.911 109.543V106.705C108.912 106.391 109.037 106.091 109.259 105.869C109.481 105.647 109.782 105.523 110.096 105.522H125.262C125.576 105.523 125.877 105.647 126.099 105.869C126.321 106.091 126.446 106.391 126.447 106.705V109.543C126.446 109.857 126.321 110.157 126.099 110.379C125.877 110.601 125.576 110.725 125.262 110.726Z" fill="#CCCCCC"/>
<path d="M117.876 118.146C118.233 118.187 118.586 118.257 118.932 118.353L143.382 97.4247L141.952 89.7458L153.281 86.0782L157.134 99.4267C157.446 100.505 157.398 101.655 156.999 102.704C156.599 103.753 155.87 104.645 154.92 105.245L123.956 124.803C123.978 126.185 123.578 127.541 122.809 128.69C122.04 129.839 120.939 130.727 119.652 131.237C118.365 131.746 116.954 131.852 115.605 131.541C114.256 131.23 113.034 130.517 112.101 129.496C111.168 128.474 110.569 127.194 110.384 125.825C110.198 124.455 110.434 123.062 111.061 121.83C111.688 120.598 112.676 119.585 113.893 118.927C115.11 118.269 116.5 117.997 117.876 118.146V118.146Z" fill="#FFB8B8"/>
<path d="M143.445 61.7878C146.83 60.842 150.212 63.4135 151.345 67.7945L156.783 88.8176C157.191 90.3935 156.399 92.0683 155.163 92.2458L140.676 94.3258C139.561 94.4859 138.579 93.3447 138.538 91.842L137.975 71.154C137.853 66.6612 140.164 62.7047 143.445 61.7878Z" fill="#3F3D56"/>
<path d="M338.172 196.079C331.502 187.223 326.229 177.4 322.537 166.952C322.323 166.327 322.338 165.646 322.579 165.031C322.821 164.416 323.273 163.907 323.856 163.594L346.681 151.386C347.05 151.187 347.46 151.075 347.88 151.058C348.299 151.041 348.717 151.12 349.101 151.288C349.492 151.458 349.84 151.715 350.117 152.039C350.394 152.363 350.593 152.745 350.699 153.158C353.356 163.226 358.35 172.529 365.277 180.314C365.562 180.631 365.771 181.008 365.888 181.418C366.004 181.828 366.026 182.259 365.951 182.678C365.879 183.09 365.713 183.481 365.467 183.82C365.22 184.159 364.9 184.438 364.529 184.634L341.704 196.842C341.12 197.153 340.445 197.247 339.798 197.107C339.151 196.967 338.575 196.603 338.172 196.079Z" fill="#CCCCCC"/>
<path d="M339.73 194.911C339.853 195.064 340.025 195.169 340.217 195.209C340.41 195.248 340.61 195.22 340.783 195.128L363.609 182.92C363.72 182.862 363.816 182.78 363.889 182.679C363.963 182.578 364.012 182.461 364.033 182.338C364.056 182.209 364.05 182.075 364.013 181.948C363.976 181.821 363.911 181.704 363.822 181.607C356.69 173.593 351.55 164.016 348.815 153.651C348.783 153.523 348.722 153.404 348.637 153.303C348.551 153.203 348.444 153.123 348.322 153.071C348.208 153.02 348.083 152.996 347.958 153.001C347.833 153.006 347.711 153.04 347.601 153.101L324.776 165.308C324.603 165.402 324.469 165.552 324.395 165.734C324.322 165.916 324.314 166.118 324.374 166.305C328.001 176.566 333.179 186.213 339.73 194.911V194.911Z" fill="white"/>
<path d="M348.18 168.808L335.748 174.286C335.275 174.493 334.739 174.505 334.258 174.319C333.776 174.133 333.388 173.763 333.179 173.292L332.871 172.597C332.663 172.125 332.651 171.59 332.838 171.109C333.025 170.628 333.395 170.241 333.867 170.032L346.299 164.554C346.771 164.347 347.307 164.335 347.789 164.521C348.271 164.707 348.659 165.077 348.868 165.548L349.175 166.244C349.383 166.715 349.395 167.251 349.209 167.731C349.022 168.212 348.652 168.599 348.18 168.808Z" fill="#CCCCCC"/>
<path d="M352.726 177.235L340.294 182.713C339.822 182.921 339.285 182.933 338.804 182.746C338.322 182.56 337.934 182.191 337.725 181.719L337.418 181.024C337.21 180.552 337.197 180.017 337.384 179.536C337.571 179.055 337.941 178.668 338.413 178.459L350.845 172.982C351.318 172.774 351.854 172.762 352.335 172.948C352.817 173.135 353.205 173.504 353.414 173.976L353.721 174.671C353.93 175.143 353.942 175.678 353.755 176.159C353.568 176.639 353.198 177.027 352.726 177.235Z" fill="#CCCCCC"/>
<path d="M323.57 170.213C322.712 169.662 321.986 168.931 321.442 168.069C320.898 167.208 320.55 166.238 320.422 165.228C320.295 164.218 320.39 163.192 320.703 162.223C321.015 161.254 321.537 160.365 322.231 159.619L316.988 85.3555L332.09 86.8173L332.504 159.543C333.683 160.79 334.363 162.425 334.414 164.138C334.466 165.852 333.886 167.524 332.785 168.839C331.684 170.155 330.137 171.021 328.439 171.274C326.741 171.527 325.008 171.15 323.57 170.213L323.57 170.213Z" fill="#A0616A"/>
<path d="M320.406 110.309C320.053 110.055 319.761 109.725 319.552 109.344C319.343 108.962 319.222 108.539 319.199 108.104L318.093 88.0887C317.983 86.1056 318.613 84.1523 319.861 82.6054C321.109 81.0585 322.886 80.0276 324.851 79.7113C326.815 79.3951 328.827 79.816 330.499 80.8928C332.171 81.9697 333.384 83.6262 333.904 85.5431L338.765 103.438C338.967 104.185 338.864 104.981 338.479 105.652C338.093 106.323 337.457 106.814 336.709 107.017L322.882 110.759C322.462 110.874 322.022 110.893 321.593 110.815C321.165 110.737 320.759 110.564 320.406 110.309Z" fill="#3F3D56"/>
<path d="M294.668 261.513H286.705L282.918 230.858H294.669L294.668 261.513Z" fill="#A0616A"/>
<path d="M281.018 259.242H296.374V268.892H271.35C271.35 267.625 271.6 266.37 272.086 265.199C272.572 264.028 273.284 262.965 274.182 262.068C275.079 261.172 276.145 260.461 277.318 259.976C278.491 259.492 279.748 259.242 281.018 259.242Z" fill="#2F2E41"/>
<path d="M324.542 261.513H316.58L312.792 230.858H324.544L324.542 261.513Z" fill="#A0616A"/>
<path d="M310.893 259.242H326.248V268.892H301.225C301.225 267.625 301.475 266.37 301.96 265.199C302.446 264.028 303.159 262.965 304.056 262.068C304.954 261.172 306.02 260.461 307.193 259.976C308.366 259.492 309.623 259.242 310.893 259.242Z" fill="#2F2E41"/>
<path d="M294.291 246.07L285.526 245.653C284.779 245.617 284.075 245.298 283.557 244.759C283.039 244.221 282.748 243.506 282.743 242.759C280.432 207.158 277.232 168.983 282.131 154.235C282.128 153.815 282.216 153.399 282.389 153.016C282.562 152.633 282.816 152.292 283.134 152.016C283.451 151.74 283.824 151.535 284.228 151.416C284.632 151.298 285.057 151.267 285.473 151.328L320.54 156.409C321.232 156.505 321.867 156.849 322.327 157.375C322.787 157.901 323.041 158.576 323.042 159.274C327.519 176.736 327.722 208.4 327.552 241.301C327.555 241.686 327.482 242.067 327.336 242.424C327.191 242.78 326.976 243.105 326.704 243.378C326.432 243.651 326.109 243.868 325.753 244.016C325.397 244.164 325.015 244.24 324.63 244.24H315.18C314.483 244.243 313.808 243.996 313.278 243.544C312.748 243.091 312.399 242.464 312.293 241.776L306.463 204.782C306.378 204.241 306.099 203.748 305.679 203.396C305.258 203.044 304.724 202.855 304.176 202.865C303.627 202.876 303.1 203.084 302.693 203.451C302.286 203.819 302.026 204.321 301.961 204.865L297.332 243.503C297.245 244.21 296.902 244.862 296.368 245.335C295.834 245.809 295.145 246.071 294.43 246.074C294.384 246.074 294.338 246.072 294.291 246.07Z" fill="#2F2E41"/>
<path d="M300.462 159.278C292.734 154.992 286.695 153.866 283.784 153.576C283.397 153.538 283.022 153.423 282.681 153.237C282.34 153.05 282.041 152.797 281.801 152.491C281.556 152.184 281.376 151.83 281.272 151.451C281.168 151.072 281.142 150.675 281.196 150.286L289.598 88.0204C290.082 84.3777 291.492 80.9191 293.693 77.9738C295.894 75.0284 298.814 72.6943 302.174 71.1935C305.427 69.701 309.008 69.0641 312.577 69.3433C316.146 69.6226 319.584 70.8087 322.564 72.7889C322.852 72.98 323.134 73.1752 323.412 73.3745C326.843 75.8843 329.454 79.352 330.914 83.3404C332.375 87.3289 332.62 91.6597 331.618 95.7869C326.466 116.826 324.696 151.318 324.394 158.019C324.37 158.59 324.177 159.142 323.84 159.604C323.503 160.066 323.036 160.418 322.498 160.615C319.328 161.765 315.983 162.36 312.61 162.373C308.362 162.398 304.178 161.333 300.462 159.278Z" fill="#3F3D56"/>
<path d="M307.49 62.7391C316.3 62.7391 323.441 55.6106 323.441 46.8172C323.441 38.0237 316.3 30.8953 307.49 30.8953C298.68 30.8953 291.539 38.0237 291.539 46.8172C291.539 55.6106 298.68 62.7391 307.49 62.7391Z" fill="#A0616A"/>
<path d="M318.778 59.4138C315.802 62.5778 310.276 60.8793 309.888 56.5568C309.858 56.2212 309.86 55.8835 309.894 55.5483C310.095 53.6336 311.203 51.8954 310.937 49.8737C310.877 49.3706 310.69 48.8911 310.392 48.4806C308.02 45.3111 302.454 49.8983 300.216 47.029C298.844 45.2696 300.457 42.4995 299.404 40.5331C298.014 37.9378 293.897 39.2181 291.316 37.7967C288.443 36.2153 288.615 31.8164 290.506 29.1407C292.812 25.8776 296.855 24.1365 300.847 23.8855C304.84 23.6346 308.805 24.7119 312.532 26.1619C316.768 27.8093 320.967 30.0861 323.574 33.8032C326.743 38.3237 327.048 44.4009 325.463 49.6867C324.499 52.9021 321.208 56.83 318.778 59.4138Z" fill="#2F2E41"/>
<path d="M331.41 74.8934C331.131 73.5839 328.734 71.7947 325.305 70.3361C319.793 68.1077 313.832 67.2105 307.907 67.7174C301.982 68.2243 296.261 70.1211 291.209 73.2533C290.857 73.2722 290.52 73.4061 290.251 73.6345C289.983 73.8629 289.797 74.1731 289.722 74.5174L278.187 125.438L276.687 132.07L275.694 136.459L274.193 143.071L273.394 146.604C273.343 146.83 273.341 147.064 273.388 147.291C273.435 147.517 273.53 147.732 273.666 147.919C273.803 148.106 273.978 148.262 274.18 148.376C274.381 148.49 274.605 148.56 274.836 148.581L324.643 152.872C324.688 152.872 324.74 152.879 324.785 152.879C325.196 152.876 325.591 152.719 325.89 152.437C326.189 152.156 326.37 151.771 326.396 151.362L326.87 144.16L327.377 136.459L327.598 133.12L328.098 125.438L331.416 74.9776V74.9323L331.41 74.8934Z" fill="#F9A826"/>
<path d="M249.686 78.0987C249.766 78.4485 249.818 78.804 249.842 79.1619L277.741 95.2271L284.522 91.3304L291.751 100.777L277.244 111.098L245.416 86.0343C244.118 86.5137 242.704 86.5874 241.363 86.2454C240.022 85.9034 238.817 85.162 237.908 84.1198C236.999 83.0775 236.43 81.7839 236.276 80.4109C236.122 79.0378 236.39 77.6505 237.045 76.4333C237.7 75.2162 238.711 74.227 239.943 73.5972C241.175 72.9674 242.57 72.7268 243.942 72.9076C245.314 73.0884 246.599 73.6819 247.625 74.6092C248.651 75.5365 249.37 76.7536 249.686 78.0987H249.686Z" fill="#A0616A"/>
<path d="M278.737 93.8609C278.69 93.4286 278.742 92.9913 278.887 92.5814C279.033 92.1715 279.268 91.7995 279.577 91.4926L293.776 77.3161C295.183 75.9117 297.061 75.0769 299.048 74.9727C301.035 74.8686 302.99 75.5024 304.537 76.7519C306.083 78.0015 307.111 79.7784 307.423 81.7399C307.735 83.7014 307.308 85.7087 306.225 87.3747L296.113 102.928C295.69 103.576 295.027 104.031 294.27 104.192C293.512 104.353 292.721 104.207 292.07 103.787L280.053 96.0022C279.687 95.7662 279.379 95.4514 279.151 95.0808C278.923 94.7102 278.782 94.2933 278.737 93.8609Z" fill="#3F3D56"/>
<path d="M328.097 125.438L327.597 133.12L276.687 132.07L278.187 125.438H328.097Z" fill="#CCCCCC"/>
<path d="M327.377 136.459L326.87 144.16L274.193 143.071L275.694 136.459H327.377Z" fill="#CCCCCC"/>
<path d="M307.802 15.8823C302.404 15.8829 297.217 17.9808 293.341 21.7318C289.465 25.4827 287.204 30.5923 287.036 35.9784H283.123C282.779 35.9784 282.448 36.115 282.205 36.3581C281.961 36.6013 281.824 36.931 281.824 37.2749V42.461C281.824 42.8048 281.961 43.1346 282.205 43.3777C282.448 43.6209 282.779 43.7575 283.123 43.7575H327.286C327.63 43.7575 327.961 43.6209 328.204 43.3777C328.448 43.1346 328.585 42.8048 328.585 42.461V36.6266C328.585 33.9024 328.047 31.2049 327.003 28.6881C325.958 26.1713 324.428 23.8844 322.498 21.9581C320.568 20.0318 318.277 18.5038 315.755 17.4613C313.234 16.4189 310.532 15.8823 307.802 15.8823Z" fill="#F9A826"/>
<path d="M57.2152 236.742C53.1049 238.184 48.6917 238.545 44.4009 237.791C40.1101 237.036 36.0863 235.192 32.7171 232.434C24.1365 225.246 21.4463 213.402 19.2573 202.436L12.7827 170L26.3379 179.316C36.0859 186.016 46.0536 192.931 52.8031 202.635C59.5526 212.339 62.4988 225.587 57.0757 236.087" fill="#E6E6E6"/>
<path d="M56.0564 276.012C57.4284 266.037 58.8391 255.934 57.8768 245.852C57.0221 236.898 54.2854 228.153 48.7138 220.982C45.7564 217.183 42.1578 213.928 38.0798 211.364C37.0163 210.694 36.0376 212.376 37.0964 213.043C44.1525 217.494 49.6102 224.067 52.6825 231.814C56.0758 240.429 56.6207 249.82 56.036 258.972C55.6824 264.506 54.9329 270.004 54.1777 275.495C54.1182 275.744 54.1553 276.005 54.2816 276.227C54.4079 276.449 54.6139 276.615 54.8581 276.691C55.1072 276.758 55.3727 276.725 55.597 276.598C55.8214 276.47 55.9864 276.26 56.0564 276.012Z" fill="#F2F2F2"/>
<path d="M42.842 258.361C41.0791 261.036 38.656 263.212 35.806 264.68C32.956 266.148 29.7752 266.859 26.5701 266.744C18.333 266.354 11.4659 260.615 5.28423 255.167L-13 239.053L-0.898876 238.475C7.80353 238.06 16.7304 237.672 25.0192 240.351C33.3079 243.029 40.9523 249.476 42.4679 258.04" fill="#E6E6E6"/>
<path d="M59.9337 281.747C53.3302 270.084 45.6708 257.122 31.9847 252.979C28.1793 251.831 24.1891 251.42 20.2289 251.767C18.9808 251.875 19.2925 253.795 20.5383 253.688C27.1764 253.138 33.8016 254.887 39.2987 258.642C44.5884 262.236 48.7071 267.233 52.193 272.531C54.3283 275.777 56.2409 279.16 58.1539 282.539C58.7653 283.618 60.5522 282.839 59.9337 281.747Z" fill="#F2F2F2"/>
</g>
<defs>
<clipPath id="clip0_8_2">
<rect width="483" height="270" fill="white" transform="translate(-87)"/>
</clipPath>
</defs>
</svg>
