<svg width="406" height="290" viewBox="0 0 406 290" fill="none" xmlns="http://www.w3.org/2000/svg">
<g clip-path="url(#clip0_9_591)">
<path d="M370.413 260.194C373.971 266.483 370.954 287.724 370.954 287.724C370.954 287.724 351.197 279.361 347.64 273.075C345.935 270.055 345.5 266.482 346.428 263.142C347.357 259.801 349.574 256.966 352.592 255.259C355.61 253.552 359.182 253.113 362.524 254.038C365.865 254.964 368.703 257.178 370.413 260.194V260.194Z" fill="#F1F1F1"/>
<path d="M371.24 287.697L370.82 287.785C366.778 268.579 352.661 255.555 352.519 255.426L352.808 255.109C352.951 255.239 367.168 268.352 371.24 287.697Z" fill="white"/>
<path d="M402.74 267.355C397.912 276.113 370.693 287.978 370.693 287.978C370.693 287.978 366.205 258.626 371.03 249.871C373.349 245.666 377.243 242.555 381.856 241.221C386.468 239.887 391.422 240.44 395.627 242.759C399.832 245.077 402.944 248.971 404.278 253.584C405.611 258.197 405.058 263.15 402.74 267.355Z" fill="#F1F1F1"/>
<path d="M370.933 288.295L370.524 287.865C390.22 269.159 395.319 243.07 395.368 242.809L395.952 242.919C395.902 243.182 390.772 269.454 370.933 288.295Z" fill="white"/>
<path d="M121.374 241.039C118.259 241.029 115.158 240.628 112.143 239.845L111.548 239.681L110.997 239.404C91.0665 229.412 74.2521 216.212 61.021 200.173C50.0683 186.819 41.5291 171.656 35.7874 155.366C28.9212 135.864 25.6179 115.286 26.0351 94.6144C26.0435 94.1805 26.0507 93.8455 26.0507 93.6147C26.0507 83.5661 31.6284 74.7492 40.2605 71.1525C46.8672 68.3997 106.852 43.7615 111.186 41.9813C119.348 37.8915 128.056 41.3051 129.45 41.902C132.575 43.1799 188.028 65.8607 200.011 71.5668C212.361 77.4477 215.656 88.0125 215.656 93.3278C215.656 117.392 211.488 139.882 203.269 160.173C196.63 176.597 187.222 191.76 175.453 205C152.747 230.553 130.034 239.612 129.815 239.692C127.101 240.626 124.245 241.082 121.374 241.039ZM116.033 227.809C118.002 228.25 122.536 228.912 125.491 227.834C129.244 226.466 148.254 216.608 166.019 196.617C190.563 168.996 203.016 134.275 203.035 93.4166C202.991 92.5889 202.403 86.685 194.585 82.9621C182.834 77.3664 125.196 53.7983 124.615 53.5607L124.456 53.4932C123.248 52.9871 119.404 51.9209 116.754 53.3095L116.223 53.5568C115.581 53.8207 51.9059 79.9733 45.1149 82.8028C40.3645 84.7821 38.6719 89.6857 38.6719 93.6147C38.6719 93.9018 38.6645 94.3195 38.654 94.8593C38.1112 122.816 44.5805 191.608 116.033 227.809Z" fill="#3F3D56"/>
<path d="M113.825 47.7194C113.825 47.7194 49.572 74.1092 42.6877 76.9777C35.8033 79.8461 32.3612 86.7304 32.3612 93.6148C32.3612 100.499 27.198 190.33 113.825 233.763C113.825 233.763 121.688 235.939 127.653 233.763C133.618 231.588 209.345 194.871 209.345 93.3279C209.345 93.3279 209.345 83.0014 197.298 77.2645C185.25 71.5276 127.002 47.7194 127.002 47.7194C127.002 47.7194 119.849 44.5641 113.825 47.7194Z" fill="#F9A826"/>
<path opacity="0.1" d="M120.71 68.3722V209.153C120.71 209.153 55.8825 177.947 56.4562 95.9094L120.71 68.3722Z" fill="black"/>
<path d="M121.555 169.553L100.904 143.001L112.914 133.66L122.692 146.232L155.724 111.362L166.77 121.828L121.555 169.553Z" fill="white"/>
<path d="M405.165 289.237H216.468C216.336 289.237 216.21 289.185 216.117 289.092C216.024 288.999 215.972 288.873 215.972 288.742C215.972 288.611 216.024 288.485 216.117 288.392C216.21 288.299 216.336 288.247 216.468 288.247H405.165C405.297 288.247 405.422 288.299 405.515 288.392C405.608 288.485 405.66 288.611 405.66 288.742C405.66 288.873 405.608 288.999 405.515 289.092C405.422 289.185 405.297 289.237 405.165 289.237Z" fill="#CACACA"/>
<path d="M271.014 281.43L278.674 281.43L282.318 251.885L271.013 251.886L271.014 281.43Z" fill="#FFB8B8"/>
<path d="M269.06 278.929L284.145 278.929H284.146C286.695 278.929 289.14 279.942 290.943 281.745C292.746 283.547 293.759 285.992 293.759 288.542V288.854L269.061 288.855L269.06 278.929Z" fill="#2F2E41"/>
<path d="M296.768 281.43L304.428 281.43L308.072 251.885L296.767 251.886L296.768 281.43Z" fill="#FFB8B8"/>
<path d="M294.814 278.929L309.899 278.929H309.9C312.449 278.929 314.894 279.942 316.697 281.745C318.5 283.547 319.513 285.992 319.513 288.542V288.854L294.815 288.855L294.814 278.929Z" fill="#2F2E41"/>
<path d="M283.053 177.678L284.891 271.408L270.027 270.486L259.716 210.785L256.459 170.079L283.053 177.678Z" fill="#2F2E41"/>
<path d="M308.562 161.939L310.645 272.893L293.31 272.398L289.566 206.443L283.053 182.563L256.459 170.08L260.801 140.229L299.878 139.687L308.562 161.939Z" fill="#2F2E41"/>
<path d="M278.676 62.618C286.017 62.618 291.968 56.6669 291.968 49.3259C291.968 41.9848 286.017 36.0337 278.676 36.0337C271.335 36.0337 265.384 41.9848 265.384 49.3259C265.384 56.6669 271.335 62.618 278.676 62.618Z" fill="#FFB8B8"/>
<path d="M289.701 68.2174L291.737 71.3019L297.164 86.4983L292.822 145.656L267.314 146.2L264.058 78.3571L270.879 69.8305L289.701 68.2174Z" fill="#CCCCCC"/>
<path d="M253.745 79.9855L249.404 79.4427C249.404 79.4427 248.318 79.9855 247.775 83.7846C247.233 87.5838 240.72 121.233 240.72 121.233L249.404 162.481L259.173 149.456L253.203 126.661L259.173 103.866L253.745 79.9855Z" fill="#2F2E41"/>
<path d="M309.104 79.4432H312.361L320.502 123.404L312.904 157.597L305.305 145.114L307.476 131.546L306.391 119.606L302.592 112.55L309.104 79.4432Z" fill="#2F2E41"/>
<path d="M286.53 49.3258L284.114 48.7216C284.114 48.7216 282.301 38.4503 278.072 39.6587C273.842 40.8671 262.967 42.0755 262.967 37.242C262.967 32.4084 273.238 28.1791 279.28 28.7833C285.322 29.3875 293.038 31.3919 294.989 40.2629C298.116 54.4836 288.537 58.0755 288.537 58.0755L288.697 57.5577C289.139 56.1201 289.171 54.5873 288.788 53.1326C288.405 51.6779 287.623 50.3593 286.53 49.3258Z" fill="#2F2E41"/>
<path d="M249.946 79.4428L267.314 72.3872L271.384 69.4022L283.596 123.404L289.295 67.7739L311.818 79.4428L304.22 116.349L303.134 130.46L306.391 141.857C306.391 141.857 317.788 149.998 313.989 158.682C310.19 167.366 305.848 167.909 305.848 167.909C305.848 167.909 287.395 150.541 286.31 146.199C285.224 141.857 283.596 134.259 283.596 134.259C283.596 134.259 274.37 168.994 263.515 168.451C252.66 167.909 252.66 156.511 252.66 156.511L255.374 144.571L259.716 132.088L257.545 111.464L249.946 79.4428Z" fill="#2F2E41"/>
</g>
<defs>
<clipPath id="clip0_9_591">
<rect width="405.66" height="289.237" fill="white"/>
</clipPath>
</defs>
</svg>
