<svg width="280" height="185" viewBox="0 0 280 185" fill="none" xmlns="http://www.w3.org/2000/svg">
<path d="M204.618 185C196.88 183.789 189.44 182.758 182.297 181.909L185.048 176.408C184.093 176.09 179.956 179.272 179.956 179.272L183.456 163.361C178.683 163.997 176.456 180.227 176.456 180.227L171.046 174.817L173.709 180.942C151.853 178.645 132.993 177.929 117.139 178.093L119.493 173.385C118.539 173.067 114.402 176.249 114.402 176.249L117.902 160.338C113.129 160.974 110.901 177.204 110.901 177.204L105.491 171.794L108.312 178.281C97.4524 178.597 86.6161 179.469 75.8459 180.896C78.1949 173.578 86.398 166.543 86.398 166.543C80.0906 168.505 76.8092 171.702 75.1108 174.666C74.7672 159.631 77.08 144.655 81.9428 130.425C81.9428 130.425 69.2138 159.065 71.1232 178.158L71.3654 181.55C60.2914 183.277 54.7346 185 54.7346 185H204.618Z" fill="#E6E6E6"/>
<path d="M176.129 42.5657V63.4667C176.129 63.6598 176.052 63.8449 175.915 63.9814C175.779 64.118 175.594 64.1949 175.401 64.1954H174.882V173.076C174.882 176.089 173.685 178.978 171.554 181.109C169.424 183.239 166.534 184.436 163.521 184.437H95.4881C93.9964 184.436 92.5193 184.142 91.1412 183.571C89.7631 183 88.511 182.164 87.4563 181.109C86.4017 180.054 85.5652 178.801 84.9945 177.423C84.4239 176.045 84.1303 174.568 84.1306 173.076V68.0141H83.7551C83.6189 68.0143 83.4881 67.9605 83.3915 67.8645C83.2948 67.7684 83.2402 67.638 83.2396 67.5018V55.6065C83.2396 55.5388 83.2529 55.4718 83.2788 55.4092C83.3047 55.3467 83.3427 55.2899 83.3905 55.242C83.4384 55.1941 83.4953 55.1561 83.5578 55.1302C83.6204 55.1043 83.6874 55.091 83.7551 55.091H84.1306V50.6104H83.7519C83.6089 50.6099 83.4719 50.5526 83.3711 50.4512C83.2703 50.3497 83.2138 50.2124 83.2141 50.0694V38.3365C83.2145 38.194 83.2713 38.0574 83.372 37.9566C83.4728 37.8559 83.6094 37.7991 83.7519 37.7987H84.1306V31.6824H83.7455C83.6828 31.6825 83.6207 31.6702 83.5628 31.6463C83.5048 31.6223 83.4522 31.5871 83.4078 31.5428C83.3635 31.4985 83.3283 31.4458 83.3044 31.3879C83.2804 31.3299 83.2681 31.2678 83.2682 31.2051V24.8024C83.2679 24.6754 83.318 24.5535 83.4075 24.4634C83.497 24.3734 83.6186 24.3225 83.7455 24.3219H84.1306V11.3574C84.1307 8.34528 85.3273 5.45654 87.4572 3.32663C89.5872 1.19673 92.4759 0.00010971 95.488 1.1624e-10H163.521C166.534 -1.36173e-05 169.423 1.19646 171.553 3.3263C173.684 5.45615 174.881 8.34495 174.882 11.3574V41.837H175.401C175.594 41.8375 175.779 41.9144 175.915 42.051C176.052 42.1875 176.129 42.3726 176.129 42.5657Z" fill="#3F3D56"/>
<path d="M132.782 5.82568H121.727C121.281 5.82568 120.919 6.18784 120.919 6.63458V7.59009C120.919 8.03683 121.281 8.39898 121.727 8.39898H132.782C133.229 8.39898 133.591 8.03683 133.591 7.59009V6.63458C133.591 6.18784 133.229 5.82568 132.782 5.82568Z" fill="#E6E8EC"/>
<path d="M136.967 8.57188C137.773 8.57188 138.427 7.9184 138.427 7.1123C138.427 6.30619 137.773 5.65271 136.967 5.65271C136.161 5.65271 135.507 6.30619 135.507 7.1123C135.507 7.9184 136.161 8.57188 136.967 8.57188Z" fill="#E6E8EC"/>
<path d="M169.442 13.6043V174.018C169.443 175.061 169.217 176.092 168.779 177.039C168.342 177.985 167.704 178.826 166.909 179.501C165.605 180.612 163.947 181.223 162.234 181.223H97.1094C95.9507 181.224 94.8087 180.946 93.7808 180.411C93.5393 180.288 93.3055 180.149 93.0807 179.997C92.1019 179.337 91.3002 178.447 90.7459 177.404C90.1916 176.361 89.9017 175.199 89.9016 174.018V13.6043C89.9016 12.6577 90.088 11.7204 90.4502 10.8459C90.8124 9.97141 91.3433 9.17681 92.0126 8.5075C92.6819 7.83819 93.4765 7.30727 94.351 6.94505C95.2256 6.58284 96.1628 6.39644 97.1094 6.39648H106.857V7.6471C106.857 9.22113 107.482 10.7307 108.595 11.8437C109.708 12.9567 111.217 13.582 112.791 13.582H145.912C147.486 13.582 148.996 12.9567 150.109 11.8437C151.222 10.7307 151.847 9.22113 151.847 7.6471V6.39648H162.234C163.181 6.39618 164.118 6.5824 164.993 6.94452C165.867 7.30663 166.662 7.83754 167.331 8.50691C168.001 9.17627 168.532 9.97097 168.894 10.8456C169.256 11.7202 169.442 12.6576 169.442 13.6043Z" fill="#F9A826"/>
<path opacity="0.3" d="M169.442 151.055V174.018C169.443 175.061 169.217 176.092 168.779 177.039C168.342 177.985 167.704 178.826 166.909 179.501C165.605 180.612 163.947 181.223 162.234 181.223H97.1094C95.9507 181.224 94.8087 180.946 93.7808 180.411C93.5393 180.287 93.3055 180.149 93.0807 179.997C92.1019 179.337 91.3002 178.447 90.7459 177.404C90.1916 176.361 89.9017 175.199 89.9016 174.018V151.064C100.822 141.248 114.986 135.817 129.67 135.815C144.354 135.813 158.519 141.241 169.442 151.055Z" fill="#E6E6E6"/>
<path opacity="0.3" d="M165.569 180.405C164.541 180.945 163.396 181.226 162.234 181.223H97.1094C95.9507 181.224 94.8087 180.946 93.7808 180.411C96.729 173.321 101.711 167.262 108.099 163C114.487 158.737 121.994 156.462 129.673 156.462C137.352 156.461 144.859 158.735 151.248 162.996C157.636 167.257 162.619 173.315 165.569 180.405Z" fill="white"/>
<path opacity="0.3" d="M151.395 180.79C150.773 181.117 150.08 181.287 149.377 181.285H109.969C109.268 181.286 108.576 181.117 107.954 180.794C109.739 176.503 112.753 172.837 116.619 170.257C120.484 167.678 125.027 166.302 129.674 166.301C134.32 166.301 138.863 167.677 142.729 170.255C146.595 172.834 149.61 176.499 151.395 180.79Z" fill="white"/>
<path d="M146.239 68.498C139.706 68.498 132.537 67.254 126.94 63.0563C119.147 57.2121 109.547 57.5239 102.865 58.815C98.4268 59.6797 94.119 61.1146 90.0487 63.084L89.7544 62.5196C93.8744 60.5247 98.2349 59.0705 102.728 58.1933C109.541 56.8747 119.338 56.5596 127.322 62.5473C142.278 73.7645 169.059 63.6898 169.328 63.5871L169.556 64.1813C164.534 65.9714 159.339 67.2359 154.056 67.9545C151.465 68.3079 148.854 68.4895 146.239 68.498Z" fill="white"/>
<path opacity="0.3" d="M89.8984 62.8018C89.8984 62.8018 111.856 57.4835 127.131 64.7652C142.405 72.0468 169.455 64.7111 169.455 64.7111" fill="white"/>
<path opacity="0.3" d="M110.628 71.0632C107.975 71.0513 105.33 70.7872 102.728 70.2743C98.2349 69.3971 93.8744 67.943 89.7544 65.948L90.0487 65.3837C94.119 67.353 98.4268 68.7879 102.865 69.6526C109.546 70.9436 119.147 71.2556 126.94 65.4113C134.916 59.4287 146.09 59.4455 154.056 60.5132C159.339 61.2317 164.534 62.4962 169.556 64.2863L169.328 64.8805C169.059 64.7775 142.278 54.7026 127.322 65.9203C122.086 69.847 116.07 71.0632 110.628 71.0632Z" fill="white"/>
<path opacity="0.3" d="M110.736 68.5006C99.7146 68.5006 89.9272 64.5466 89.7804 64.4861L90.0228 63.8975C90.2406 63.9874 112.008 72.7758 126.969 63.9181C142.188 54.906 169.263 62.9503 169.534 63.0327L169.35 63.6418C169.081 63.5604 142.271 55.5967 127.293 64.4656C122.181 67.4923 116.301 68.5006 110.736 68.5006Z" fill="white"/>
<path opacity="0.3" d="M89.9016 63.7024C89.9016 63.7024 111.856 70.9841 127.131 63.7024C142.405 56.4208 169.442 63.0144 169.442 63.0144" fill="white"/>
<path d="M175.109 83.1839V92.461C175.109 92.461 175.851 102.851 179.933 108.047C179.933 108.047 186.613 117.509 187.54 115.468L186.398 108.749L182.531 105.078L180.49 93.5743L179.933 83.1839H175.109Z" fill="#FFB8B8"/>
<path d="M216.114 167.049V173.914L210.548 175.955V167.977L216.114 167.049Z" fill="#FFB8B8"/>
<path d="M204.796 166.307L208.507 174.656L203.312 176.883L202.198 168.719L204.796 166.307Z" fill="#FFB8B8"/>
<path d="M214.073 102.295C214.073 102.295 221.495 169.276 218.712 169.461C215.928 169.647 210.548 173.172 210.548 170.76C210.548 168.348 206.28 136.991 206.28 136.991L202.198 120.849V143.114L206.466 168.348C206.466 168.348 202.384 173.729 199.415 170.574L193.107 145.897C193.107 145.897 184.757 108.418 185.128 105.449C185.128 105.449 204.239 89.1212 214.073 102.295Z" fill="#2F2E41"/>
<path d="M212.589 174.285C212.589 174.285 214.073 171.131 217.413 173.172L220.196 176.512C220.196 176.512 227.371 182.454 222.28 183.727C217.032 185.039 213.888 183.643 213.888 183.643C213.888 183.643 212.96 183.087 212.218 183.087C211.476 183.087 209.806 181.788 209.806 181.417C209.806 181.046 210.362 174.471 210.362 174.471C210.572 174.368 210.809 174.331 211.04 174.364C211.272 174.397 211.488 174.499 211.661 174.656C212.218 175.213 212.589 174.285 212.589 174.285Z" fill="#2F2E41"/>
<path d="M201.642 173.172C201.642 173.172 205.167 170.389 206.837 173.543C206.837 173.543 207.888 173.914 208.012 173.543C208.136 173.172 209.063 172.986 209.063 175.027C209.063 177.068 210.071 182.159 209.143 182.344C208.216 182.53 207.288 183.087 207.473 183.829C207.659 184.571 206.466 184.676 202.198 184.49C197.931 184.305 197.745 182.635 197.745 182.635C197.745 182.635 197.745 180.223 198.859 178.924C199.972 177.625 201.642 173.172 201.642 173.172Z" fill="#2F2E41"/>
<path d="M194.777 51.6416C194.777 51.6416 193.849 58.5067 199.786 60.9187C205.724 63.3308 186.613 71.3091 184.757 66.6706C182.902 62.032 185.128 60.5477 185.128 60.5477C185.128 60.5477 186.984 58.6922 185.314 53.6826L194.777 51.6416Z" fill="#FFB8B8"/>
<path d="M188.839 56.4657C193.348 56.4657 197.003 52.8107 197.003 48.3019C197.003 43.7931 193.348 40.138 188.839 40.138C184.331 40.138 180.675 43.7931 180.675 48.3019C180.675 52.8107 184.331 56.4657 188.839 56.4657Z" fill="#FFB8B8"/>
<path d="M198.302 63.1453C198.302 63.1453 192.736 66.1139 187.355 63.8874C181.974 61.6609 182.16 71.3091 182.16 71.3091L184.943 78.5453L204.239 76.6899L202.941 65.5573L198.302 63.1453Z" fill="#F2F2F2"/>
<path d="M195.536 56.7966C196.525 57.0063 197.453 57.4356 198.253 58.0528C199.053 58.67 199.704 59.4593 200.157 60.3621L209.063 63.1453L211.29 66.2995L208.692 89.1212C208.692 89.1212 213.516 93.7598 213.516 96.3574C213.516 98.955 219.454 107.861 216.485 106.748C213.516 105.635 208.136 101.738 208.136 101.738C208.136 101.738 194.591 102.295 190.324 106.006C186.056 109.716 184.386 108.603 184.386 108.603C184.386 108.603 179.933 89.3068 179.748 86.3381C179.562 83.3694 174.367 65.5573 174.367 65.5573L183.644 60.3621L186.007 57.681L192.55 68.1549L198.487 60.9187C198.487 60.9187 195.554 58.6118 195.536 56.7966Z" fill="#3F3D56"/>
<path d="M214.073 80.5862L215.186 86.5236C215.186 86.5236 220.196 105.078 219.454 111.386C219.454 111.386 220.01 125.488 216.856 123.818C213.702 122.148 215.372 111.943 215.372 111.943L210.919 93.5742L208.507 82.8128L214.073 80.5862Z" fill="#FFB8B8"/>
<path d="M209.435 65.1862L211.29 66.2995C211.29 66.2995 218.341 80.9573 216.671 82.0706C215.001 83.1838 207.765 85.5959 207.765 85.5959L209.435 65.1862Z" fill="#3F3D56"/>
<path d="M178.82 65.5574L174.46 65.4645L173.439 67.2271L174.738 85.225L181.418 86.7092L178.82 65.5574Z" fill="#3F3D56"/>
<path d="M195.487 41.3974L196.959 40.8623C196.959 40.8623 193.882 37.7855 189.601 38.0531L190.805 36.8491C190.805 36.8491 187.862 35.7789 185.187 38.5881C183.78 40.0649 182.153 41.8007 181.139 43.7561H179.563L180.221 45.0715L177.919 46.3869L180.281 46.1506C180.057 47.2863 180.135 48.4608 180.505 49.5575L181.04 51.0289C181.04 51.0289 183.18 46.7482 183.18 46.2131V47.5508C183.18 47.5508 184.652 46.3469 184.652 45.5443L185.454 46.4807L185.856 45.0092L190.805 46.4807L190.003 45.2767L193.079 45.678L191.875 44.2066C191.875 44.2066 195.353 45.9456 195.487 47.4171C195.621 48.8886 196.539 50.8067 196.539 50.8067L197.653 49.5079C197.653 49.5079 199.367 43.4039 195.487 41.3974Z" fill="#2F2E41"/>
<path d="M195.704 50.0645C196.063 50.0645 196.354 49.3169 196.354 48.3946C196.354 47.4724 196.063 46.7247 195.704 46.7247C195.346 46.7247 195.055 47.4724 195.055 48.3946C195.055 49.3169 195.346 50.0645 195.704 50.0645Z" fill="#FFB8B8"/>
<path opacity="0.3" d="M89.9016 62.8018C89.9016 62.8018 111.856 51.3457 127.131 62.8018C142.405 74.2579 169.442 63.8843 169.442 63.8843" fill="white"/>
<path d="M129.756 179.375C131.689 179.375 133.257 177.808 133.257 175.875C133.257 173.942 131.689 172.374 129.756 172.374C127.823 172.374 126.256 173.942 126.256 175.875C126.256 177.808 127.823 179.375 129.756 179.375Z" fill="white"/>
</svg>
