<svg width="388" height="258" viewBox="0 0 388 258" fill="none" xmlns="http://www.w3.org/2000/svg">
<g clip-path="url(#clip0_9_592)">
<path d="M336.641 257.12L337.741 257.099C337.316 244.864 336.01 232.676 333.835 220.628C329.077 194.835 321.165 177.895 310.319 170.28L309.687 171.18C335.024 188.97 336.628 256.44 336.641 257.12Z" fill="#2F2E41"/>
<path d="M322.886 256.857L323.987 256.835C323.963 255.617 323.275 226.897 311.969 218.959L311.337 219.86C322.187 227.478 322.881 256.564 322.886 256.857Z" fill="#2F2E41"/>
<path d="M303.427 171.28C306.465 171.28 308.929 168.817 308.929 165.778C308.929 162.74 306.465 160.276 303.427 160.276C300.388 160.276 297.925 162.74 297.925 165.778C297.925 168.817 300.388 171.28 303.427 171.28Z" fill="#F9A826"/>
<path d="M306.151 218.596C309.19 218.596 311.653 216.133 311.653 213.094C311.653 210.056 309.19 207.592 306.151 207.592C303.113 207.592 300.649 210.056 300.649 213.094C300.649 216.133 303.113 218.596 306.151 218.596Z" fill="#F9A826"/>
<path d="M325.451 174.578C324.417 181.183 327.112 187.09 327.112 187.09C327.112 187.09 331.483 182.289 332.517 175.685C333.551 169.08 330.856 163.173 330.856 163.173C330.856 163.173 326.485 167.974 325.451 174.578Z" fill="#2F2E41"/>
<path d="M307.467 190.618C313.79 192.787 320.076 191.163 320.076 191.163C320.076 191.163 316.111 186.022 309.787 183.853C303.464 181.684 297.178 183.308 297.178 183.308C297.178 183.308 301.144 188.449 307.467 190.618Z" fill="#2F2E41"/>
<path d="M307.264 232.521C310.126 233.42 313.173 233.552 316.102 232.903C314.242 230.535 311.738 228.756 308.89 227.779C306.043 226.802 302.973 226.67 300.052 227.397C301.966 229.707 304.453 231.474 307.264 232.521Z" fill="#2F2E41"/>
<path d="M178.864 85.3873L143.392 66.9419C143.392 66.9419 131.48 53.8237 123.999 47.8984C116.518 41.9732 114.215 46.3261 114.215 46.3261L111.07 51.5673L118.67 62.1374L139.199 79.5211L175.879 93.8884C176.453 94.8277 177.281 95.585 178.268 96.0722C179.255 96.5595 180.36 96.7567 181.455 96.6409C182.549 96.5252 183.589 96.1013 184.452 95.4184C185.315 94.7356 185.967 93.8218 186.332 92.7832C186.696 91.7447 186.759 90.624 186.512 89.5514C186.265 88.4788 185.718 87.4983 184.936 86.7238C184.154 85.9493 183.168 85.4126 182.093 85.176C181.019 84.9394 179.899 85.0127 178.864 85.3873Z" fill="#9F616A"/>
<path d="M86.5977 69.4345L84.4976 56.5864L78.5677 55.1039C78.5677 55.1039 73.8615 53.6543 72.7615 63.134C71.6614 72.6136 72.5143 90.3126 72.5143 90.3126L60.4747 128.438C59.4732 128.904 58.6247 129.645 58.0279 130.574C57.4311 131.503 57.1106 132.583 57.1037 133.688C57.0969 134.792 57.4039 135.876 57.9892 136.813C58.5744 137.749 59.4136 138.501 60.4093 138.979C61.4049 139.457 62.5159 139.643 63.6128 139.514C64.7098 139.385 65.7477 138.947 66.6055 138.252C67.4633 137.556 68.1059 136.631 68.4583 135.584C68.8107 134.537 68.8585 133.412 68.5961 132.339L84.3741 96.2425L86.5977 69.4345Z" fill="#9F616A"/>
<path d="M135.646 249.738L143.405 249.737L147.097 219.808L135.644 219.808L135.646 249.738Z" fill="#9F616A"/>
<path d="M133.666 247.204L148.948 247.204H148.948C151.531 247.204 154.008 248.23 155.834 250.056C157.661 251.882 158.687 254.359 158.687 256.942V257.259L133.667 257.259L133.666 247.204Z" fill="#2F2E41"/>
<path d="M51.0111 249.738L58.7709 249.737L62.4621 219.808L51.01 219.808L51.0111 249.738Z" fill="#9F616A"/>
<path d="M49.032 247.204L64.3134 247.204H64.3141C66.8968 247.204 69.3738 248.23 71.2001 250.056C73.0264 251.882 74.0524 254.359 74.0526 256.942V257.259L49.0324 257.259L49.032 247.204Z" fill="#2F2E41"/>
<path d="M89.3188 43.7694L76.4485 54.7562L87.0109 88.1815L89.3941 95.6454C89.3941 95.6454 74.8417 109.063 65.8375 146.544C56.8333 184.026 42.1034 233.829 42.1034 233.829L73.1956 242.73L98.4911 157.943L128.245 224.461L131.68 244.135L158.158 236.328L151.912 186.986L120.683 101.574L123.927 78.9334C123.927 78.9334 128.798 67.6324 120.336 55.6678L117.681 44.4253L108.172 42.0831L89.3188 43.7694Z" fill="#2F2E41"/>
<path d="M110.7 37.7965H75.9036C75.1878 37.7957 74.5016 37.511 73.9955 37.0049C73.4894 36.4988 73.2047 35.8125 73.2039 35.0968V20.0982C73.2039 14.7678 75.3213 9.65575 79.0905 5.88661C82.8596 2.11748 87.9716 0 93.302 0C98.6324 0 103.744 2.11748 107.514 5.88661C111.283 9.65575 113.4 14.7678 113.4 20.0982V35.0968C113.399 35.8125 113.115 36.4988 112.609 37.0049C112.102 37.511 111.416 37.7957 110.7 37.7965Z" fill="#2F2E41"/>
<path d="M110.362 29.78C114.265 22.6393 111.641 13.6861 104.5 9.78261C97.3591 5.87911 88.406 8.50344 84.5025 15.6442C80.599 22.785 83.2233 31.7381 90.3641 35.6416C97.5049 39.5451 106.458 36.9208 110.362 29.78Z" fill="#9F616A"/>
<path d="M118.155 21.598H96.8776L96.6593 18.5432L95.5684 21.598H92.2921L91.8598 15.5435L89.6976 21.598H83.3582V21.2981C83.3629 17.083 85.0394 13.0419 88.0199 10.0614C91.0004 7.08085 95.0415 5.4043 99.2565 5.39954H102.256C106.471 5.4043 110.513 7.08084 113.493 10.0614C116.474 13.0419 118.15 17.083 118.155 21.2981V21.598Z" fill="#2F2E41"/>
<path d="M96.7035 40.5963C96.5433 40.5961 96.3834 40.582 96.2256 40.5541L80.6454 37.8051V12.0555H97.7963L97.3716 12.5506C91.4639 19.4406 95.9147 30.6128 99.0936 36.6591C99.3279 37.102 99.4323 37.602 99.3949 38.1016C99.3576 38.6012 99.1798 39.0801 98.8822 39.4831C98.633 39.8277 98.3055 40.1083 97.9268 40.3018C97.548 40.4954 97.1288 40.5963 96.7035 40.5963Z" fill="#2F2E41"/>
<path d="M225.551 175.59L89.0051 223.867C85.629 225.056 81.919 224.858 78.689 223.315C75.459 221.772 72.9728 219.012 71.7759 215.638L48.3192 149.294C47.1299 145.918 47.3283 142.208 48.8709 138.978C50.4135 135.748 53.1743 133.262 56.5477 132.065L193.094 83.7876C196.47 82.5983 200.18 82.7966 203.41 84.3392C206.64 85.8818 209.126 88.6427 210.323 92.0161L233.779 158.36C234.969 161.736 234.77 165.446 233.228 168.676C231.685 171.906 228.924 174.393 225.551 175.59Z" fill="white"/>
<path d="M233.779 158.36L233.904 158.711C235.043 161.936 234.855 165.48 233.381 168.566C231.906 171.651 229.267 174.025 226.043 175.164L88.8142 223.682C85.5907 224.822 82.0467 224.634 78.9616 223.161C75.8765 221.687 73.5029 219.049 72.363 215.826L72.2389 215.475L233.779 158.36Z" fill="#F2F2F2"/>
<path d="M80.484 147.468C71.433 153.424 59.833 148.942 55.7761 142.413L56.4229 142.046C64.1283 137.243 75.5714 139.919 80.484 147.468Z" fill="#F9A826"/>
<path d="M193.905 164.365C191.69 165.149 189.695 165.113 187.976 164.258C184.09 162.328 182.267 156.603 180.802 152.003C180.375 150.665 179.973 149.401 179.563 148.368L179.557 148.352C178.843 146.302 178.968 144.054 179.902 142.095C180.837 140.137 182.507 138.626 184.549 137.892L202.915 131.398C205.128 130.616 207.121 130.652 208.838 131.504C212.723 133.433 214.548 139.155 216.015 143.754C216.442 145.095 216.846 146.361 217.257 147.396C217.975 149.448 217.853 151.699 216.918 153.661C215.984 155.624 214.312 157.137 212.267 157.873L193.905 164.365ZM180.326 148.074C180.746 149.132 181.152 150.406 181.581 151.755C182.999 156.208 184.765 161.749 188.34 163.526C189.875 164.288 191.606 164.31 193.632 163.594L211.993 157.102C213.833 156.441 215.337 155.081 216.179 153.317C217.021 151.553 217.133 149.528 216.491 147.682C216.075 146.637 215.667 145.357 215.235 144.002C213.815 139.551 212.049 134.011 208.475 132.237C206.941 131.476 205.212 131.454 203.188 132.17L184.823 138.663C182.986 139.324 181.483 140.683 180.641 142.445C179.8 144.206 179.686 146.229 180.326 148.074Z" fill="#3F3D56"/>
<path d="M76.6772 149.613C73.4498 150.732 69.9731 150.923 66.6425 150.164C61.7785 149.096 57.3642 146.192 55.1225 142.586L54.8978 142.224L55.9073 141.651C63.7286 136.779 75.4569 139.42 80.5193 147.198L80.7413 147.539L80.4014 147.763C79.2395 148.528 77.989 149.149 76.6772 149.613ZM56.0488 142.511C58.2427 145.771 62.325 148.379 66.818 149.365C71.1855 150.385 75.7791 149.644 79.6039 147.302C74.652 140.139 63.6807 137.763 56.3334 142.349L56.0488 142.511Z" fill="#3F3D56"/>
<path d="M81.4744 197.231C80.3277 197.685 79.0792 197.818 77.8626 197.616C76.6461 197.414 75.5076 196.884 74.5691 196.084C73.4707 195.124 72.6381 193.897 72.1514 192.522C71.6647 191.147 71.5403 189.67 71.7904 188.232C72.0226 186.996 72.5927 185.848 73.4374 184.915C74.2822 183.982 75.3686 183.302 76.5763 182.949L101.048 174.297C102.209 173.815 103.481 173.664 104.723 173.86C105.965 174.055 107.129 174.59 108.086 175.404C109.184 176.365 110.016 177.592 110.502 178.967C110.988 180.342 111.112 181.819 110.861 183.256C110.378 185.781 108.673 187.642 106.074 188.532L81.6023 197.184C81.5596 197.2 81.517 197.216 81.4744 197.231ZM76.7285 183.762C75.6843 184.084 74.7477 184.685 74.0193 185.5C73.2909 186.314 72.7982 187.312 72.5941 188.386C72.3689 189.681 72.4809 191.011 72.9194 192.25C73.3579 193.489 74.1081 194.594 75.0976 195.459C75.9459 196.178 76.9767 196.648 78.0757 196.816C79.1747 196.985 80.2989 196.846 81.3238 196.415L105.808 187.759C106.877 187.45 107.84 186.852 108.59 186.03C109.34 185.208 109.848 184.195 110.058 183.102C110.283 181.808 110.172 180.477 109.734 179.238C109.296 177.999 108.546 176.894 107.557 176.029C106.708 175.31 105.677 174.841 104.577 174.671C103.478 174.501 102.353 174.638 101.326 175.066L76.841 183.723C76.8034 183.736 76.7657 183.749 76.7285 183.762L76.7285 183.762Z" fill="#3F3D56"/>
<path d="M194.069 144.845L186.354 147.573C185.843 147.754 185.281 147.724 184.791 147.49C184.301 147.256 183.925 146.837 183.744 146.326C183.563 145.814 183.593 145.252 183.827 144.763C184.06 144.273 184.479 143.896 184.991 143.715L192.705 140.988C193.217 140.807 193.779 140.837 194.269 141.071C194.758 141.304 195.135 141.723 195.316 142.235C195.496 142.746 195.467 143.309 195.233 143.798C194.999 144.288 194.58 144.664 194.069 144.845Z" fill="#F9A826"/>
<path d="M196.251 151.017L188.536 153.744C188.025 153.925 187.463 153.895 186.973 153.662C186.483 153.428 186.107 153.009 185.926 152.497C185.745 151.986 185.775 151.424 186.009 150.934C186.242 150.444 186.661 150.068 187.173 149.887L194.887 147.159C195.399 146.979 195.961 147.008 196.451 147.242C196.94 147.476 197.317 147.895 197.498 148.406C197.679 148.918 197.649 149.48 197.415 149.97C197.181 150.459 196.762 150.836 196.251 151.017Z" fill="#F9A826"/>
<path d="M198.433 157.188L190.718 159.916C190.465 160.005 190.197 160.044 189.929 160.03C189.66 160.016 189.397 159.949 189.155 159.833C188.913 159.717 188.695 159.555 188.516 159.355C188.336 159.156 188.198 158.922 188.108 158.669C188.018 158.416 187.98 158.147 187.994 157.879C188.008 157.611 188.075 157.348 188.191 157.106C188.306 156.863 188.469 156.646 188.669 156.466C188.868 156.287 189.101 156.148 189.355 156.059L197.069 153.331C197.322 153.242 197.591 153.203 197.859 153.217C198.127 153.231 198.39 153.298 198.633 153.414C198.875 153.53 199.092 153.692 199.272 153.892C199.452 154.091 199.59 154.325 199.68 154.578C199.769 154.831 199.808 155.1 199.794 155.368C199.78 155.636 199.713 155.899 199.597 156.141C199.481 156.384 199.319 156.601 199.119 156.781C198.919 156.96 198.686 157.099 198.433 157.188Z" fill="#F9A826"/>
<path d="M207.569 140.072L199.855 142.8C199.601 142.889 199.333 142.928 199.065 142.914C198.796 142.899 198.534 142.833 198.291 142.717C198.049 142.601 197.832 142.439 197.652 142.239C197.472 142.039 197.334 141.806 197.244 141.553C197.155 141.3 197.116 141.031 197.13 140.763C197.144 140.495 197.211 140.232 197.327 139.989C197.443 139.747 197.605 139.53 197.805 139.35C198.005 139.17 198.238 139.032 198.491 138.942L206.205 136.215C206.717 136.034 207.279 136.064 207.769 136.297C208.258 136.531 208.635 136.95 208.816 137.462C208.997 137.973 208.967 138.535 208.733 139.025C208.499 139.515 208.081 139.891 207.569 140.072Z" fill="#F9A826"/>
<path d="M209.751 146.244L202.037 148.971C201.784 149.061 201.515 149.099 201.247 149.085C200.979 149.071 200.716 149.004 200.473 148.888C200.231 148.773 200.014 148.61 199.834 148.411C199.654 148.211 199.516 147.978 199.426 147.724C199.337 147.471 199.298 147.203 199.312 146.934C199.326 146.666 199.393 146.403 199.509 146.161C199.625 145.919 199.787 145.701 199.987 145.522C200.187 145.342 200.42 145.203 200.673 145.114L208.388 142.386C208.641 142.297 208.909 142.258 209.177 142.272C209.446 142.286 209.709 142.353 209.951 142.469C210.193 142.585 210.411 142.747 210.59 142.947C210.77 143.147 210.908 143.38 210.998 143.633C211.088 143.886 211.126 144.155 211.112 144.423C211.098 144.691 211.031 144.954 210.915 145.197C210.8 145.439 210.637 145.656 210.437 145.836C210.238 146.016 210.005 146.154 209.751 146.244Z" fill="#F9A826"/>
<path d="M211.933 152.415L204.219 155.143C203.707 155.324 203.145 155.294 202.655 155.06C202.166 154.826 201.789 154.407 201.608 153.896C201.427 153.384 201.457 152.822 201.691 152.332C201.925 151.843 202.343 151.466 202.855 151.285L210.569 148.558C210.823 148.468 211.091 148.43 211.359 148.444C211.628 148.458 211.89 148.525 212.133 148.641C212.375 148.756 212.592 148.919 212.772 149.119C212.952 149.318 213.09 149.551 213.18 149.805C213.269 150.058 213.308 150.326 213.294 150.595C213.28 150.863 213.213 151.126 213.097 151.368C212.981 151.611 212.819 151.828 212.619 152.007C212.42 152.187 212.186 152.326 211.933 152.415Z" fill="#F9A826"/>
<path d="M215.43 106.458L53.8892 163.572L54.1619 164.344L215.703 107.229L215.43 106.458Z" fill="#3F3D56"/>
<path d="M225.551 175.59L89.0051 223.867C85.629 225.056 81.919 224.858 78.689 223.315C75.459 221.772 72.9728 219.012 71.7759 215.638L48.3192 149.294C47.1299 145.918 47.3283 142.208 48.8709 138.978C50.4135 135.748 53.1743 133.262 56.5477 132.065L193.094 83.7876C196.47 82.5983 200.18 82.7966 203.41 84.3392C206.64 85.8818 209.126 88.6427 210.323 92.0161L233.779 158.36C234.969 161.736 234.77 165.446 233.228 168.676C231.685 171.906 228.924 174.393 225.551 175.59ZM56.8204 132.836C53.6515 133.961 51.058 136.296 49.6089 139.33C48.1598 142.365 47.9734 145.85 49.0907 149.021L72.5473 215.365C73.6718 218.534 76.0073 221.128 79.0415 222.577C82.0758 224.026 85.5609 224.212 88.7324 223.095L225.278 174.818C228.447 173.694 231.041 171.358 232.49 168.324C233.939 165.29 234.125 161.805 233.008 158.633L209.551 92.2888C208.427 89.1199 206.091 86.5264 203.057 85.0773C200.023 83.6282 196.538 83.4418 193.366 84.559L56.8204 132.836Z" fill="#3F3D56"/>
<path d="M406.037 257.487H0.550186C0.404268 257.487 0.264325 257.429 0.161145 257.326C0.0579655 257.223 0 257.083 0 256.937C0 256.791 0.0579655 256.651 0.161145 256.548C0.264325 256.445 0.404268 256.387 0.550186 256.387H406.037C406.183 256.387 406.323 256.445 406.426 256.548C406.53 256.651 406.588 256.791 406.588 256.937C406.588 257.083 406.53 257.223 406.426 257.326C406.323 257.429 406.183 257.487 406.037 257.487Z" fill="#CBCBCB"/>
</g>
<defs>
<clipPath id="clip0_9_592">
<rect width="406.588" height="257.487" fill="white"/>
</clipPath>
</defs>
</svg>
