<svg width="319" height="299" viewBox="0 0 319 299" fill="none" xmlns="http://www.w3.org/2000/svg">
<g clip-path="url(#clip0_9_590)">
<path d="M294.885 228.253L309.195 230.49C314.039 224.625 317.379 217.666 318.923 210.217C308.459 218.783 292.546 214.231 279.857 218.907C275.911 220.396 272.35 222.754 269.439 225.806C266.528 228.858 264.341 232.526 263.04 236.538L256.046 244.063C262.377 246.569 269.176 247.673 275.974 247.299C282.773 246.924 289.41 245.081 295.427 241.895C298.785 240.074 301.9 237.837 304.699 235.238C299.692 232.085 294.885 228.253 294.885 228.253Z" fill="#F2F2F2"/>
<path d="M289.804 205.366L303.61 200.985C305.33 193.575 305.216 185.858 303.276 178.502C297.73 190.835 281.457 193.858 272.186 203.703C269.318 206.795 267.183 210.494 265.938 214.524C264.694 218.554 264.372 222.812 264.997 226.983L262.093 236.837C268.877 236.257 275.455 234.213 281.373 230.846C287.291 227.479 292.409 222.869 296.374 217.334C298.567 214.206 300.358 210.815 301.704 207.24C295.816 206.651 289.804 205.366 289.804 205.366Z" fill="#F2F2F2"/>
<path d="M319 248.621C319 248.695 318.986 248.768 318.958 248.836C318.93 248.904 318.888 248.966 318.836 249.019C318.784 249.071 318.722 249.112 318.653 249.14C318.585 249.169 318.512 249.183 318.438 249.183H0.561844C0.412838 249.183 0.269933 249.124 0.16457 249.018C0.0592068 248.913 1.52588e-05 248.77 1.52588e-05 248.621C1.52588e-05 248.472 0.0592068 248.329 0.16457 248.224C0.269933 248.118 0.412838 248.059 0.561844 248.059H318.438C318.512 248.059 318.585 248.073 318.653 248.101C318.722 248.13 318.784 248.171 318.836 248.223C318.888 248.275 318.93 248.337 318.958 248.406C318.986 248.474 319 248.547 319 248.621Z" fill="#CCCCCC"/>
<path d="M131.721 224.669C187.782 224.669 233.228 179.223 233.228 123.162C233.228 67.1009 187.782 21.6545 131.721 21.6545C75.6609 21.6545 30.2149 67.1009 30.2149 123.162C30.2149 179.223 75.6609 224.669 131.721 224.669Z" fill="#E6E6E6"/>
<path d="M219.064 123.162C219.075 136.791 215.891 150.232 209.769 162.408C203.647 174.585 194.756 185.157 183.811 193.277C183.079 193.825 182.333 194.358 181.583 194.878C166.946 205.052 149.547 210.505 131.722 210.505C113.896 210.505 96.4972 205.052 81.8605 194.878C81.1098 194.358 80.3639 193.825 79.6321 193.277C68.6941 185.15 59.8094 174.576 53.688 162.401C47.5667 150.227 44.3786 136.789 44.3786 123.162C44.3786 109.535 47.5667 96.0968 53.688 83.9221C59.8094 71.7474 68.6941 61.1737 79.6321 53.0462C80.3639 52.4986 81.1098 51.9651 81.8605 51.4457C96.4972 41.2715 113.896 35.8184 131.722 35.8184C149.547 35.8184 166.946 41.2715 181.583 51.4457C182.333 51.9651 183.079 52.4986 183.811 53.0462C194.756 61.1665 203.647 71.7388 209.769 83.9151C215.891 96.0914 219.075 109.533 219.064 123.162Z" fill="white"/>
<path d="M131.722 202.951C175.788 202.951 211.51 167.228 211.51 123.162C211.51 79.0952 175.788 43.3723 131.722 43.3723C87.6553 43.3723 51.9326 79.0952 51.9326 123.162C51.9326 167.228 87.6553 202.951 131.722 202.951Z" fill="#F9A826"/>
<path opacity="0.2" d="M131.93 43.5953C130.72 43.5953 129.518 43.627 128.322 43.6802C148.488 45.4523 167.226 54.8238 180.741 69.8962C194.256 84.9685 201.535 104.614 201.106 124.854C200.676 145.093 192.569 164.413 178.427 178.898C164.285 193.383 145.166 201.951 124.943 202.866C127.246 203.066 129.575 203.174 131.93 203.174C153.091 203.174 173.386 194.768 188.349 179.804C203.312 164.841 211.719 144.546 211.719 123.385C211.719 102.223 203.312 81.9285 188.349 66.9651C173.386 52.0017 153.091 43.5954 131.93 43.5954V43.5953Z" fill="black"/>
<path d="M131.958 37.7068C131.269 37.708 130.609 37.982 130.123 38.4687C129.636 38.9554 129.362 39.6152 129.361 40.3035V51.6345C129.361 52.3232 129.634 52.9837 130.121 53.4707C130.608 53.9576 131.269 54.2312 131.958 54.2312C132.646 54.2312 133.307 53.9576 133.794 53.4707C134.281 52.9837 134.554 52.3232 134.554 51.6345V40.3035C134.553 39.6152 134.279 38.9554 133.792 38.4687C133.306 37.982 132.646 37.708 131.958 37.7068Z" fill="white"/>
<path d="M183.811 53.0462C183.079 52.4985 182.333 51.965 181.583 51.4457C181.132 51.4163 180.682 51.505 180.276 51.7028C179.87 51.9007 179.523 52.201 179.269 52.5741L172.891 61.9363C172.503 62.5054 172.358 63.2052 172.486 63.8816C172.614 64.5581 173.006 65.1558 173.575 65.5434C174.144 65.9309 174.844 66.0765 175.521 65.9481C176.197 65.8197 176.795 65.4279 177.182 64.8588L183.561 55.4965C183.803 55.1413 183.953 54.7311 183.997 54.3032C184.041 53.8752 183.977 53.4431 183.811 53.0462Z" fill="white"/>
<path d="M212.79 95.7359C212.662 95.4202 212.472 95.1329 212.233 94.8904C211.994 94.6479 211.709 94.4549 211.395 94.3225C211.081 94.1901 210.744 94.1208 210.404 94.1187C210.063 94.1166 209.725 94.1816 209.41 94.31L198.909 98.5733C198.272 98.833 197.764 99.335 197.497 99.9692C197.229 100.603 197.224 101.318 197.483 101.955C197.743 102.593 198.244 103.102 198.878 103.369C199.512 103.637 200.226 103.643 200.864 103.384L211.364 99.121C212.001 98.8601 212.509 98.3574 212.776 97.7229C213.043 97.0885 213.048 96.374 212.79 95.7359Z" fill="white"/>
<path d="M90.5523 61.9363L84.1739 52.5741C83.9197 52.201 83.5727 51.9007 83.1669 51.7028C82.7612 51.505 82.3109 51.4163 81.8605 51.4457C81.1098 51.965 80.3639 52.4985 79.6321 53.0462C79.4662 53.4431 79.4022 53.8752 79.4459 54.3031C79.4896 54.7311 79.6396 55.1413 79.8823 55.4965L86.2607 64.8588C86.6482 65.4279 87.246 65.8197 87.9224 65.9481C88.5989 66.0765 89.2986 65.9309 89.8677 65.5434C90.4368 65.1558 90.8286 64.5581 90.957 63.8816C91.0854 63.2052 90.9398 62.5054 90.5523 61.9363Z" fill="white"/>
<path d="M64.5335 98.5733L54.0335 94.31C53.3956 94.051 52.6809 94.0559 52.0466 94.3238C51.4123 94.5917 50.9104 95.1005 50.6512 95.7384C50.392 96.3763 50.3969 97.091 50.6646 97.7253C50.9323 98.3597 51.4411 98.8617 52.0789 99.121L62.579 103.384C63.2168 103.643 63.9311 103.637 64.565 103.369C65.1989 103.101 65.7005 102.593 65.9595 101.955C66.2186 101.318 66.2139 100.603 65.9465 99.9691C65.6791 99.335 65.1709 98.8329 64.5335 98.5733V98.5733Z" fill="white"/>
<path d="M131.958 192.092C131.269 192.093 130.609 192.367 130.123 192.854C129.636 193.341 129.362 194.001 129.361 194.689V206.02C129.361 206.709 129.634 207.369 130.121 207.856C130.608 208.343 131.269 208.617 131.958 208.617C132.646 208.617 133.307 208.343 133.794 207.856C134.281 207.369 134.554 206.709 134.554 206.02V194.689C134.553 194.001 134.279 193.341 133.792 192.854C133.306 192.367 132.646 192.093 131.958 192.092Z" fill="white"/>
<path d="M183.561 190.827L177.182 181.465C176.99 181.183 176.745 180.942 176.46 180.755C176.175 180.568 175.856 180.439 175.521 180.375C175.186 180.312 174.841 180.315 174.508 180.384C174.174 180.454 173.857 180.588 173.575 180.78C173.294 180.972 173.052 181.217 172.865 181.503C172.678 181.788 172.55 182.107 172.486 182.442C172.422 182.777 172.425 183.121 172.495 183.455C172.564 183.788 172.699 184.105 172.891 184.387L179.269 193.749C179.523 194.122 179.87 194.423 180.276 194.621C180.682 194.818 181.132 194.907 181.583 194.878C182.333 194.358 183.079 193.825 183.811 193.277C183.977 192.88 184.041 192.448 183.997 192.02C183.953 191.592 183.803 191.182 183.561 190.827Z" fill="white"/>
<path d="M211.364 147.202L200.864 142.939C200.226 142.68 199.511 142.685 198.877 142.953C198.243 143.221 197.741 143.73 197.482 144.367C197.223 145.005 197.227 145.72 197.495 146.354C197.763 146.989 198.272 147.491 198.91 147.75L209.41 152.013C210.047 152.272 210.762 152.266 211.396 151.998C212.029 151.73 212.531 151.222 212.79 150.584C213.049 149.947 213.044 149.232 212.777 148.598C212.51 147.964 212.001 147.462 211.364 147.202V147.202Z" fill="white"/>
<path d="M89.8677 180.78C89.2986 180.393 88.5989 180.247 87.9225 180.376C87.2461 180.504 86.6484 180.896 86.2607 181.465L79.8823 190.827C79.6396 191.182 79.4896 191.592 79.4459 192.02C79.4022 192.448 79.4662 192.88 79.6321 193.277C80.3639 193.825 81.1098 194.358 81.8605 194.878C82.311 194.907 82.7613 194.818 83.167 194.621C83.5727 194.423 83.9198 194.122 84.1739 193.749L90.5523 184.387C90.7442 184.105 90.8788 183.788 90.9482 183.455C91.0177 183.121 91.0207 182.777 90.9571 182.442C90.8936 182.107 90.7646 181.788 90.5777 181.502C90.3908 181.217 90.1495 180.972 89.8677 180.78Z" fill="white"/>
<path d="M65.9594 144.365C65.8311 144.049 65.6419 143.762 65.4026 143.519C65.1633 143.277 64.8785 143.084 64.5646 142.952C64.2507 142.819 63.9137 142.75 63.573 142.748C63.2323 142.746 62.8945 142.811 62.579 142.939L52.0789 147.202C51.4416 147.462 50.9334 147.964 50.666 148.598C50.3986 149.232 50.3939 149.947 50.653 150.584C50.912 151.222 51.4136 151.731 52.0475 151.998C52.6813 152.266 53.3957 152.272 54.0335 152.013L64.5336 147.75C65.1706 147.489 65.6783 146.986 65.9456 146.352C66.2128 145.717 66.2178 145.003 65.9594 144.365Z" fill="white"/>
<path d="M135.327 121.873C135.567 123.293 135.233 124.749 134.401 125.923C133.568 127.097 132.303 127.893 130.885 128.136L84.8062 135.974C84.1033 136.094 83.3838 136.074 82.6886 135.915C81.9935 135.757 81.3363 135.463 80.7548 135.05C80.1732 134.638 79.6785 134.115 79.2991 133.511C78.9196 132.907 78.6628 132.235 78.5432 131.532C78.4237 130.829 78.4437 130.11 78.6023 129.414C78.7608 128.719 79.0547 128.062 79.4672 127.48C79.8797 126.899 80.4026 126.404 81.0063 126.025C81.6099 125.645 82.2824 125.389 82.9853 125.269L129.064 117.431C130.483 117.191 131.94 117.524 133.114 118.357C134.288 119.19 135.084 120.454 135.327 121.873Z" fill="#3F3D56"/>
<path d="M183.823 172.925C183.161 173.59 182.262 173.966 181.323 173.97C180.385 173.974 179.483 173.605 178.815 172.944L129.213 123.73C128.547 123.069 128.171 122.17 128.168 121.231C128.165 120.293 128.534 119.391 129.195 118.725C129.856 118.059 130.755 117.682 131.693 117.678C132.632 117.674 133.534 118.043 134.201 118.703L183.803 167.917C184.469 168.579 184.845 169.478 184.849 170.417C184.852 171.356 184.484 172.257 183.823 172.925Z" fill="#3F3D56"/>
<path d="M131.722 129.299C135.111 129.299 137.859 126.551 137.859 123.162C137.859 119.772 135.111 117.024 131.722 117.024C128.332 117.024 125.584 119.772 125.584 123.162C125.584 126.551 128.332 129.299 131.722 129.299Z" fill="#CCCCCC"/>
<path d="M89.4457 16.7344C80.0245 31.5462 65.65 41.376 47.9225 47.8336C47.5722 48.096 47.1737 48.2868 46.7496 48.3951C46.3256 48.5034 45.8844 48.5272 45.4512 48.465C45.0179 48.4028 44.6012 48.2559 44.2248 48.0327C43.8483 47.8094 43.5195 47.5142 43.2572 47.1639C33.6278 34.3068 35.8021 15.9313 48.5109 6.10694C51.5834 3.73587 55.0963 1.99875 58.8457 0.99644C62.5951 -0.00587395 66.5062 -0.253423 70.352 0.268172C74.1979 0.789767 77.9018 2.07011 81.2487 4.03487C84.5957 5.99964 87.519 8.60969 89.849 11.7135L90.1154 12.0691C90.3777 12.4194 90.5685 12.8179 90.6769 13.242C90.7852 13.666 90.8089 14.1072 90.7468 14.5405C90.6846 14.9737 90.5377 15.3904 90.3144 15.7668C90.0912 16.1433 89.796 16.4721 89.4457 16.7344Z" fill="#E6E6E6"/>
<path d="M173.594 11.7135C175.924 8.60968 178.847 5.99963 182.194 4.03487C185.541 2.07011 189.245 0.789769 193.091 0.268174C196.937 -0.253421 200.848 -0.00587913 204.597 0.996435C208.347 1.99875 211.86 3.73587 214.932 6.10694C227.641 15.9313 229.815 34.3068 220.186 47.1639C219.923 47.5142 219.595 47.8094 219.218 48.0327C218.842 48.2559 218.425 48.4028 217.992 48.465C217.559 48.5272 217.117 48.5034 216.693 48.3951C216.269 48.2868 215.871 48.096 215.521 47.8336C199.064 41.5329 185.568 30.6296 173.997 16.7344C173.29 16.2046 172.822 15.4154 172.696 14.5404C172.571 13.6655 172.798 12.7765 173.328 12.0691L173.594 11.7135Z" fill="#E6E6E6"/>
<path d="M169.465 211.104C168.865 211.441 168.423 212.002 168.236 212.665C168.048 213.327 168.132 214.037 168.467 214.638L183.453 241.418C183.789 242.019 184.35 242.462 185.013 242.649C185.676 242.836 186.386 242.752 186.987 242.416C187.587 242.079 188.03 241.518 188.217 240.856C188.405 240.193 188.321 239.483 187.985 238.882L172.999 212.102C172.661 211.502 172.1 211.06 171.438 210.873C170.775 210.686 170.066 210.769 169.465 211.104Z" fill="#E6E6E6"/>
<path d="M90.4443 212.102L75.4582 238.882C75.1221 239.483 75.0384 240.193 75.2256 240.855C75.4128 241.518 75.8556 242.079 76.4565 242.416C77.0574 242.752 77.7672 242.836 78.4299 242.649C79.0926 242.462 79.6538 242.019 79.9902 241.418L94.9763 214.638C95.143 214.34 95.2493 214.013 95.2894 213.674C95.3294 213.335 95.3023 212.992 95.2097 212.664C95.117 212.336 94.9606 212.029 94.7494 211.761C94.5382 211.493 94.2763 211.27 93.9787 211.103C93.6811 210.937 93.3535 210.83 93.0148 210.79C92.6761 210.751 92.3329 210.778 92.0047 210.87C91.6765 210.963 91.3698 211.12 91.102 211.331C90.8343 211.542 90.6108 211.804 90.4443 212.102H90.4443Z" fill="#E6E6E6"/>
<path d="M186.488 248.275C190.921 248.275 194.514 244.682 194.514 240.249C194.514 235.816 190.921 232.223 186.488 232.223C182.055 232.223 178.462 235.816 178.462 240.249C178.462 244.682 182.055 248.275 186.488 248.275Z" fill="#E6E6E6"/>
<path d="M192.153 42.9002C196.586 42.9002 200.179 39.3068 200.179 34.874C200.179 30.4413 196.586 26.8479 192.153 26.8479C187.721 26.8479 184.127 30.4413 184.127 34.874C184.127 39.3068 187.721 42.9002 192.153 42.9002Z" fill="#E6E6E6"/>
<path d="M131.249 24.0152C135.682 24.0152 139.275 20.4218 139.275 15.989C139.275 11.5563 135.682 7.96289 131.249 7.96289C126.817 7.96289 123.223 11.5563 123.223 15.989C123.223 20.4218 126.817 24.0152 131.249 24.0152Z" fill="#E6E6E6"/>
<path d="M73.1781 41.956C77.6108 41.956 81.2043 38.3626 81.2043 33.9298C81.2043 29.4971 77.6108 25.9037 73.1781 25.9037C68.7454 25.9037 65.152 29.4971 65.152 33.9298C65.152 38.3626 68.7454 41.956 73.1781 41.956Z" fill="#E6E6E6"/>
<path d="M78.3715 248.275C82.8042 248.275 86.3976 244.682 86.3976 240.249C86.3976 235.816 82.8042 232.223 78.3715 232.223C73.9388 232.223 70.3454 235.816 70.3454 240.249C70.3454 244.682 73.9388 248.275 78.3715 248.275Z" fill="#E6E6E6"/>
<path d="M180.192 168.411C180.509 168.906 180.93 169.326 181.426 169.641C181.922 169.956 182.482 170.158 183.064 170.234C183.647 170.309 184.24 170.256 184.8 170.078C185.36 169.9 185.874 169.601 186.306 169.202L198.901 175.951L198.225 168.557L186.369 163.282C185.652 162.6 184.709 162.206 183.72 162.173C182.731 162.14 181.764 162.47 181.003 163.103C180.241 163.735 179.738 164.624 179.589 165.603C179.44 166.581 179.654 167.58 180.192 168.411H180.192Z" fill="#FFB7B7"/>
<path d="M189.369 170.991L194.304 164.179L218.08 175.418L247.667 169.867C249.129 169.592 250.634 169.643 252.075 170.016C253.515 170.389 254.856 171.074 256.002 172.023C257.148 172.972 258.071 174.162 258.705 175.508C259.34 176.854 259.67 178.323 259.673 179.811C259.675 182.499 258.611 185.077 256.714 186.981C254.817 188.885 252.242 189.959 249.555 189.967L215.648 190.03L189.369 170.991Z" fill="#3F3D56"/>
<path d="M181.767 288.658L176.774 286.27L183.633 265.398L191.002 268.923L181.767 288.658Z" fill="#FFB7B7"/>
<path d="M215.244 285.293C214.881 285.52 214.517 285.744 214.151 285.968C213.421 286.415 212.684 286.855 211.946 287.288C211.576 287.505 211.202 287.721 210.831 287.934V287.945L210.809 287.948L210.802 287.952L210.237 288.092L209.427 285.949L209.052 284.963L208.524 283.565L207.556 281.009L202.458 267.548L210.384 265.593L210.681 266.807H210.685L210.831 267.409L213.601 278.64L214.165 280.936L214.184 281.005L214.525 282.377L214.818 283.565L215.145 284.893L215.244 285.293Z" fill="#FFB7B7"/>
<path d="M262.526 238.021C262.024 238.828 261.51 239.631 260.993 240.427C260.032 241.909 259.045 243.369 258.033 244.807C258.033 244.81 258.029 244.81 258.026 244.814C257.435 245.361 256.783 245.838 256.082 246.234C256.052 246.256 256.019 246.27 255.99 246.289C255.474 246.574 254.924 246.794 254.354 246.945C254.149 246.996 253.94 247.048 253.734 247.099C252.993 247.275 252.26 247.426 251.53 247.558C250.232 247.789 248.948 247.954 247.671 248.056C247.569 248.067 247.466 248.075 247.363 248.082C242.115 248.467 237.006 247.847 231.673 246.831C229.039 246.333 226.351 245.735 223.567 245.115C222.657 244.909 221.744 244.708 220.819 244.506C220.75 244.491 220.676 244.473 220.603 244.458C219.283 244.169 217.94 243.882 216.565 243.6C214.834 243.244 213.047 242.899 211.191 242.573L211.324 245.188C211.433 247.2 211.852 249.183 212.563 251.068C213.356 253.386 213.983 255.22 212.659 259.038L212.02 260.886C212.351 261.804 212.465 262.787 212.352 263.756C212.24 264.725 211.904 265.655 211.371 266.473L211.243 266.667L216.565 280.132L216.91 281.004H214.184L210.832 281.008H205.151L196.953 264.562L196.561 263.777V263.736L197.408 232.131C197.419 231.852 197.441 231.57 197.478 231.291C197.627 230.024 198.027 228.799 198.655 227.688C199.283 226.577 200.126 225.602 201.134 224.821C202.101 224.065 203.208 223.51 204.391 223.186C205.574 222.862 206.81 222.777 208.026 222.935L210.832 223.299L216.565 224.04L220.603 224.564L220.684 224.575L232.593 226.115L233.448 222.631L233.605 222.572L238.619 220.735L255.961 214.378L256.005 214.364L257.145 213.946L257.281 214.166C257.321 214.232 257.362 214.298 257.398 214.364C258.526 216.385 259.444 218.516 260.138 220.724C261.306 224.33 262.267 228 263.018 231.716C263.051 231.878 263.08 232.024 263.106 232.156L263.117 232.197C263.128 232.259 263.135 232.299 263.139 232.31C263.538 233.976 263.26 236.008 262.526 238.021Z" fill="#2F2E41"/>
<path d="M263.258 226.374C263.203 226.139 263.133 225.9 263.06 225.669C262.478 223.919 261.799 222.203 261.028 220.527C260.162 218.62 259.124 216.577 257.888 214.365C257.291 213.294 256.647 212.18 255.959 211.024C255.614 210.444 255.256 209.854 254.884 209.252C254.87 209.225 254.854 209.198 254.837 209.172L254.73 208.995L237.572 211.292L231.183 212.146L230.802 215.33L230.71 216.118C230.706 216.118 230.706 216.118 230.71 216.122L230.453 218.271V218.275L230.112 221.114L230.083 221.11L220.602 219.882L210.83 218.616L205.582 217.938C204.365 217.779 203.13 217.864 201.947 218.188C200.763 218.512 199.656 219.067 198.69 219.823C197.682 220.605 196.839 221.579 196.211 222.69C195.583 223.801 195.183 225.026 195.033 226.293C195 226.55 194.978 226.814 194.967 227.074L190.016 238.808C187.053 245.825 185.166 253.249 184.419 260.829L180.788 272.438L181.305 272.486L189 273.201L191.032 273.391L195.506 266.859C196.016 266.115 196.5 265.348 196.951 264.563C197.694 263.281 198.355 261.953 198.928 260.587L208.608 237.553C209.356 237.682 210.097 237.804 210.83 237.92C214.223 238.47 217.48 238.919 220.602 239.266C230.75 240.399 239.538 240.487 247.362 239.526C249.559 239.259 251.682 238.907 253.733 238.47C254.485 238.312 255.227 238.142 255.959 237.96C256.132 237.92 256.3 237.88 256.469 237.836C257.985 237.445 259.378 236.68 260.522 235.611C261.666 234.542 262.523 233.204 263.016 231.718C263.604 229.996 263.688 228.142 263.258 226.374Z" fill="#2F2E41"/>
<path d="M183.362 285.25L177.96 282.66L177.112 282.253L175.759 285.576L166.311 287.656C165.844 287.758 165.421 288.007 165.106 288.367C164.79 288.726 164.598 289.177 164.557 289.653C164.516 290.13 164.629 290.607 164.878 291.015C165.128 291.423 165.501 291.741 165.944 291.921L175.176 295.688L178.106 293.051L177.387 296.591L180.864 298.01L184.675 285.88L183.362 285.25Z" fill="#2F2E41"/>
<path d="M216.565 280.132L216.91 281.005H216.565V280.132Z" fill="#2F2E41"/>
<path d="M214.683 281.191L209.022 283.152L208.134 283.459L209.51 286.773L204.26 294.899C204 295.3 203.875 295.774 203.904 296.252C203.933 296.729 204.113 297.185 204.419 297.552C204.726 297.92 205.141 298.179 205.606 298.294C206.07 298.408 206.559 298.371 207.001 298.188L216.211 294.369L216.438 290.433L218.417 293.454L221.887 292.016L216.06 280.715L214.683 281.191Z" fill="#2F2E41"/>
<path d="M261.846 231.688C261.51 231.687 261.179 231.605 260.882 231.448L231.008 215.839L230.663 214.425L230.013 209.954L230.022 209.912L232.863 196.813C232.811 196.701 232.702 196.516 232.579 196.308C231.311 194.159 227.451 187.618 234.817 178.613L247.751 163.533L258.852 163.055L258.979 163.215C261.947 166.941 263.949 171.342 264.806 176.028C265.664 180.713 265.35 185.538 263.894 190.074L262.738 210.949L263.978 215.165C264.702 217.643 264.582 220.291 263.637 222.693L263.921 229.52C263.932 229.799 263.887 230.079 263.788 230.341C263.688 230.602 263.537 230.842 263.344 231.044C263.15 231.246 262.918 231.408 262.661 231.518C262.403 231.629 262.126 231.686 261.846 231.688L261.846 231.688Z" fill="#3F3D56"/>
<path d="M235.933 248.904C236.439 248.605 236.874 248.199 237.206 247.714C237.538 247.229 237.76 246.677 237.855 246.097C237.951 245.517 237.918 244.923 237.76 244.357C237.601 243.791 237.32 243.267 236.937 242.821L244.119 230.469L236.706 230.887L231.022 242.553C230.316 243.246 229.889 244.174 229.822 245.162C229.754 246.149 230.051 247.127 230.657 247.91C231.262 248.692 232.133 249.226 233.106 249.409C234.078 249.593 235.084 249.413 235.933 248.904L235.933 248.904Z" fill="#FFB7B7"/>
<path d="M238.831 239.823L232.195 234.654L244.254 211.283L239.736 181.521C239.512 180.05 239.616 178.547 240.038 177.121C240.461 175.694 241.192 174.378 242.18 173.265C243.169 172.153 244.39 171.272 245.757 170.685C247.124 170.098 248.604 169.819 250.091 169.868C252.777 169.959 255.317 171.112 257.154 173.074C258.991 175.036 259.974 177.647 259.889 180.333L258.772 214.221L238.831 239.823Z" fill="#3F3D56"/>
<path d="M240.631 157.267V146.282C240.628 142.379 242.177 138.634 244.935 135.871C247.694 133.109 251.437 131.556 255.341 131.553C259.245 131.551 262.99 133.099 265.752 135.858C268.514 138.617 270.067 142.36 270.07 146.264V146.282C272.664 151.689 271.041 154.259 270.07 157.267C270.069 157.791 269.86 158.293 269.49 158.664C269.119 159.034 268.617 159.243 268.093 159.244H242.608C242.084 159.243 241.582 159.035 241.211 158.664C240.84 158.294 240.632 157.791 240.631 157.267Z" fill="#2F2E41"/>
<path d="M250.524 158.53C256.609 158.53 261.542 153.597 261.542 147.512C261.542 141.427 256.609 136.494 250.524 136.494C244.439 136.494 239.506 141.427 239.506 147.512C239.506 153.597 244.439 158.53 250.524 158.53Z" fill="#FFB7B7"/>
<path d="M262.055 150.4C261.955 150.384 261.855 150.363 261.755 150.348C260.037 150.043 258.318 149.743 256.605 149.433L256.447 145.549L254.371 149.028C249.636 150.6 245.205 149.712 241.037 147.751C239.662 147.099 238.328 146.363 237.043 145.549C237.393 143.401 238.219 141.358 239.46 139.57C240.701 137.783 242.326 136.295 244.217 135.216C244.375 135.127 244.527 135.048 244.685 134.969C244.685 134.969 244.686 134.969 244.687 134.969C244.687 134.968 244.688 134.968 244.688 134.968C244.689 134.967 244.689 134.967 244.689 134.966C244.69 134.965 244.69 134.965 244.69 134.964C244.958 134.838 245.231 134.717 245.504 134.607C247.644 133.77 249.977 133.559 252.232 133.996C254.488 134.433 256.572 135.501 258.245 137.077C261.608 140.288 263.122 145.591 262.055 150.4Z" fill="#2F2E41"/>
</g>
<defs>
<clipPath id="clip0_9_590">
<rect width="319" height="298.359" fill="white"/>
</clipPath>
</defs>
</svg>
