<svg width="249" height="183" viewBox="0 0 249 183" fill="none" xmlns="http://www.w3.org/2000/svg">
<path d="M93.5333 177.715L101.701 175.126L101.701 175.126C102.385 174.909 103.105 174.827 103.821 174.884C104.536 174.941 105.234 175.136 105.873 175.459C106.512 175.781 107.08 176.223 107.545 176.761C108.011 177.3 108.363 177.923 108.584 178.595L108.638 178.761L95.2657 183L93.5333 177.715Z" fill="#2F2E41"/>
<path d="M43.5714 177.191L52.087 177.19H52.0874C52.8001 177.19 53.5057 177.336 54.1642 177.619C54.8226 177.901 55.4208 178.316 55.9248 178.838C56.4287 179.361 56.8285 179.981 57.1012 180.664C57.3739 181.346 57.5143 182.078 57.5143 182.817V182.999L43.5717 183L43.5714 177.191Z" fill="#2F2E41"/>
<path d="M226.008 140.382C222.783 149.822 218.306 159.149 212.194 167.89C212.059 168.087 211.921 168.28 211.783 168.476L193.457 162.871C193.537 162.681 193.623 162.469 193.715 162.238C199.241 148.588 232.482 65.3917 228.539 48.2191C228.912 49.6284 241.105 96.2578 226.008 140.382Z" fill="#E6E6E6"/>
<path d="M215.988 169.134C215.769 169.305 215.543 169.474 215.314 169.638L201.59 165.442C201.751 165.288 201.938 165.108 202.154 164.904C205.675 161.513 216.134 151.357 226.25 140.605C237.12 129.05 247.596 116.81 248.648 111.543C248.453 112.744 242.299 149.29 215.988 169.134Z" fill="#E6E6E6"/>
<path d="M217.857 43.3492H216.852V15.8914C216.852 11.6768 215.173 7.63471 212.184 4.65449C209.196 1.67427 205.143 0 200.916 0H142.583C138.357 0 134.303 1.67427 131.315 4.65449C128.326 7.63471 126.648 11.6768 126.648 15.8914V166.528C126.648 170.742 128.326 174.784 131.315 177.765C134.303 180.745 138.357 182.419 142.583 182.419H200.916C205.143 182.419 209.196 180.745 212.184 177.765C215.173 174.784 216.851 170.742 216.851 166.528V62.8942H217.857L217.857 43.3492Z" fill="#3F3D56"/>
<path d="M201.299 4.06665H193.678C194.028 4.92352 194.162 5.85323 194.068 6.77387C193.973 7.69451 193.653 8.57781 193.135 9.34595C192.617 10.1141 191.918 10.7435 191.099 11.1786C190.28 11.6138 189.366 11.8414 188.437 11.8414H154.986C154.058 11.8413 153.144 11.6137 152.325 11.1785C151.506 10.7434 150.807 10.1141 150.29 9.34604C149.772 8.57802 149.452 7.69485 149.357 6.77433C149.262 5.85382 149.396 4.92421 149.747 4.0674H142.627C139.467 4.0674 136.437 5.31874 134.203 7.54613C131.969 9.77352 130.714 12.7945 130.714 15.9445V15.9445V166.475C130.714 169.625 131.969 172.646 134.203 174.874C136.437 177.101 139.467 178.352 142.627 178.352H201.297C204.457 178.352 207.486 177.101 209.72 174.874C211.954 172.646 213.209 169.625 213.209 166.475V166.475V15.9438C213.209 12.7938 211.954 9.77277 209.72 7.54538C207.486 5.31799 204.457 4.06665 201.297 4.06665V4.06665L201.299 4.06665Z" fill="white"/>
<path d="M178.616 159.554C179.193 155.998 176.778 152.647 173.221 152.07C169.665 151.493 166.314 153.908 165.737 157.465C165.16 161.021 167.575 164.372 171.131 164.949C174.688 165.526 178.039 163.111 178.616 159.554Z" fill="#E6E6E6"/>
<path d="M208.142 82.9153H136.008V97.1572H208.142V82.9153Z" fill="#E6E6E6"/>
<path d="M137.545 95.6197H206.604V84.4542H137.545V95.6197Z" fill="white"/>
<path d="M143.591 85.6899C144.432 85.6899 145.255 85.9394 145.954 86.4069C146.654 86.8744 147.199 87.5388 147.521 88.3161C147.843 89.0935 147.927 89.9488 147.763 90.774C147.599 91.5993 147.194 92.3573 146.599 92.9522C146.004 93.5472 145.246 93.9524 144.421 94.1165C143.595 94.2807 142.74 94.1964 141.963 93.8744C141.185 93.5524 140.521 93.0072 140.053 92.3076C139.586 91.608 139.337 90.7855 139.337 89.9441C139.337 89.3854 139.447 88.8322 139.66 88.3161C139.874 87.8 140.188 87.331 140.583 86.936C140.978 86.5409 141.447 86.2276 141.963 86.0138C142.479 85.8 143.032 85.6899 143.591 85.6899Z" fill="#F9A826"/>
<path d="M195.749 88.2794H153.764V89.2042H195.749V88.2794Z" fill="#E6E6E6"/>
<path d="M195.749 90.6838H153.764V91.6086H195.749V90.6838Z" fill="#E6E6E6"/>
<path d="M208.142 103.239H136.008V117.481H208.142V103.239Z" fill="#E6E6E6"/>
<path d="M137.545 115.943H206.604V104.778H137.545V115.943Z" fill="white"/>
<path d="M143.591 114.522C145.94 114.522 147.845 112.617 147.845 110.268C147.845 107.918 145.94 106.013 143.591 106.013C141.241 106.013 139.337 107.918 139.337 110.268C139.337 112.617 141.241 114.522 143.591 114.522Z" fill="#F9A826"/>
<path d="M195.749 108.603H153.764V109.528H195.749V108.603Z" fill="#E6E6E6"/>
<path d="M195.749 111.007H153.764V111.932H195.749V111.007Z" fill="#E6E6E6"/>
<path d="M208.142 123.562H136.008V137.804H208.142V123.562Z" fill="#E6E6E6"/>
<path d="M137.545 136.267H206.604V125.101H137.545V136.267Z" fill="white"/>
<path d="M143.591 134.845C145.94 134.845 147.845 132.941 147.845 130.591C147.845 128.242 145.94 126.337 143.591 126.337C141.241 126.337 139.337 128.242 139.337 130.591C139.337 132.941 141.241 134.845 143.591 134.845Z" fill="#F9A826"/>
<path d="M195.749 128.927H153.764V129.851H195.749V128.927Z" fill="#E6E6E6"/>
<path d="M195.749 131.331H153.764V132.256H195.749V131.331Z" fill="#E6E6E6"/>
<path d="M172.252 68.5524C183.322 68.5524 192.295 59.5789 192.295 48.5095C192.295 37.4402 183.322 28.4667 172.252 28.4667C161.183 28.4667 152.209 37.4402 152.209 48.5095C152.209 59.5789 161.183 68.5524 172.252 68.5524Z" fill="#F9A826"/>
<path d="M181.838 42.1553V54.8636C181.838 54.9828 181.814 55.1009 181.768 55.211C181.722 55.3212 181.654 55.4213 181.569 55.5056C181.484 55.5899 181.382 55.6567 181.271 55.7023C181.159 55.7479 181.04 55.7714 180.919 55.7714H163.004C162.884 55.7714 162.764 55.7479 162.653 55.7023C162.541 55.6567 162.44 55.5899 162.355 55.5056C162.269 55.4213 162.202 55.3212 162.156 55.211C162.109 55.1009 162.086 54.9828 162.086 54.8636V42.1553C162.085 42.0515 162.104 41.9484 162.141 41.8512C162.196 41.6961 162.293 41.5589 162.421 41.4545C162.549 41.35 162.704 41.2824 162.869 41.2589C162.914 41.2517 162.959 41.2479 163.004 41.2476H180.919C180.965 41.2479 181.01 41.2517 181.055 41.2589C181.219 41.2824 181.374 41.35 181.503 41.4544C181.631 41.5589 181.728 41.6961 181.783 41.8512C181.82 41.9484 181.839 42.0515 181.838 42.1553V42.1553Z" fill="white"/>
<path d="M181.838 41.8728L172.237 49.2851C172.158 49.3472 172.061 49.3809 171.962 49.3809C171.863 49.3809 171.766 49.3472 171.687 49.2851L162.086 41.8728C162.141 41.7091 162.238 41.5642 162.367 41.454C162.497 41.3438 162.652 41.2724 162.818 41.2476L171.962 48.3052L181.106 41.2476C181.271 41.2723 181.427 41.3437 181.556 41.454C181.685 41.5642 181.783 41.7091 181.838 41.8728V41.8728Z" fill="#F9A826"/>
<path d="M54.6095 64.946C54.6095 71.1885 60.4618 70.2443 67.6809 70.2443C74.9001 70.2443 80.7523 71.1885 80.7523 64.946C80.7523 58.7035 77.8937 47.6381 67.6809 47.6381C57.1163 47.6381 54.6095 58.7035 54.6095 64.946Z" fill="#2F2E41"/>
<path d="M95.1992 178.933L99.3428 177.593L96.163 160.924L90.0476 162.901L95.1992 178.933Z" fill="#A0616A"/>
<path d="M44.7341 178.933L49.064 178.933L51.1238 162.086L44.7333 162.086L44.7341 178.933Z" fill="#A0616A"/>
<path d="M39.2419 114.735C38.9046 114.318 38.6535 113.837 38.5036 113.319C38.3536 112.802 38.3079 112.258 38.3693 111.722C38.4306 111.186 38.5977 110.668 38.8605 110.2C39.1233 109.731 39.4763 109.321 39.8985 108.995C40.0534 108.876 40.217 108.77 40.3879 108.677L54.2953 75.36C54.431 74.9596 54.6433 74.5906 54.9198 74.2743C55.1963 73.9579 55.5316 73.7005 55.9064 73.5169C56.2811 73.3333 56.6878 73.2271 57.1031 73.2045C57.5183 73.1819 57.9339 73.2434 58.3257 73.3853C58.7175 73.5272 59.0778 73.7468 59.3859 74.0313C59.6939 74.3159 59.9435 74.6598 60.1203 75.0432C60.2971 75.4265 60.3976 75.8418 60.416 76.265C60.4343 76.6881 60.3702 77.1108 60.2272 77.5086L45.9056 110.657C46.2654 111.543 46.301 112.531 46.0059 113.442C45.7108 114.352 45.1046 115.125 44.2976 115.619C43.4907 116.113 42.5365 116.295 41.6087 116.133C40.6808 115.97 39.841 115.474 39.2419 114.735Z" fill="#A0616A"/>
<path d="M91.0276 117.922C90.2281 117.426 89.6298 116.655 89.3415 115.748C89.0532 114.842 89.094 113.86 89.4565 112.981L75.1308 79.8216C74.9896 79.4243 74.9269 79.0024 74.9463 78.5803C74.9657 78.1581 75.0669 77.7441 75.2439 77.3619C75.421 76.9797 75.6704 76.637 75.978 76.3533C76.2855 76.0697 76.6451 75.8508 77.036 75.7092C77.4269 75.5676 77.8414 75.5061 78.2557 75.5282C78.67 75.5503 79.0759 75.6557 79.4501 75.8382C79.8243 76.0206 80.1594 76.2767 80.4361 76.5915C80.7129 76.9063 80.9258 77.2738 81.0626 77.6728L94.974 111.001C95.1449 111.094 95.3085 111.2 95.4634 111.319C95.8856 111.645 96.2386 112.055 96.5014 112.523C96.7642 112.992 96.9313 113.51 96.9926 114.046C97.0539 114.582 97.0083 115.125 96.8583 115.643C96.7084 116.161 96.4572 116.642 96.12 117.059C95.75 117.515 95.2855 117.882 94.7597 118.134C94.2339 118.385 93.66 118.515 93.079 118.514C92.3544 118.515 91.6438 118.31 91.0276 117.922V117.922Z" fill="#A0616A"/>
<path d="M71.8845 69.224C76.0766 66.9324 77.6172 61.6763 75.3256 57.4842C73.034 53.2921 67.7779 51.7514 63.5858 54.0431C59.3937 56.3347 57.8531 61.5908 60.1447 65.7829C62.4363 69.975 67.6924 71.5156 71.8845 69.224Z" fill="#A0616A"/>
<path d="M55.7661 98.5121L54.0495 78.7334C53.9768 77.8965 54.0938 77.0541 54.392 76.2679C54.6901 75.4816 55.1617 74.7715 55.7724 74.1896C56.383 73.6076 57.1172 73.1685 57.9211 72.9044C58.725 72.6404 59.5783 72.5581 60.4184 72.6636L76.368 74.6663C77.8287 74.8465 79.1613 75.5836 80.0836 76.7216C81.0059 77.8595 81.4453 79.3089 81.3089 80.7627C80.6755 87.83 78.9082 100.237 74.188 103.934L74.116 103.99L55.7661 98.5121Z" fill="#2F2E41"/>
<path d="M51.014 169.047L44.4134 168.258C44.0242 168.217 43.6641 168.031 43.4031 167.737C43.1422 167.443 42.9991 167.061 43.0017 166.667C43.0162 163.463 43.008 160.182 43.0002 157.009C42.9328 129.822 42.8691 104.143 55.5636 97.0571L55.6322 97.019L74.0956 103.465L74.8025 115.943L89.7913 137.361C91.0309 139.131 91.9642 141.1 92.5515 143.184L98.1205 162.917C98.1792 163.125 98.1954 163.343 98.168 163.557C98.1406 163.772 98.0703 163.979 97.9612 164.165C97.8522 164.351 97.7068 164.513 97.5337 164.641C97.3607 164.769 97.1637 164.86 96.9548 164.908L90.4631 166.419C90.089 166.506 89.6964 166.453 89.3584 166.269C89.0203 166.086 88.7598 165.785 88.6254 165.422L79.9272 143.578L62.2524 124.368C62.1856 124.298 62.1013 124.248 62.0083 124.223C61.9154 124.198 61.8175 124.199 61.7252 124.226C61.6329 124.254 61.5497 124.306 61.4847 124.377C61.4196 124.449 61.3752 124.537 61.3561 124.632L52.7351 167.777C52.658 168.167 52.4384 168.515 52.1197 168.75C51.801 168.985 51.4065 169.091 51.014 169.047Z" fill="#2F2E41"/>
<path d="M77.8476 60.9999H74.3822L72.8534 56.7098L72.5478 60.9999H70.8915L69.9997 58.4974L69.8213 60.9999H57.5143C57.5143 59.7793 57.7542 58.5706 58.2203 57.4428C58.6864 56.3151 59.3696 55.2904 60.2308 54.4272C61.0921 53.5641 62.1145 52.8794 63.2398 52.4123C64.3651 51.9451 65.5711 51.7047 66.7891 51.7047H68.5728C69.7908 51.7047 70.9968 51.9451 72.1221 52.4123C73.2474 52.8794 74.2698 53.5641 75.1311 54.4272C75.9923 55.2904 76.6755 56.3151 77.1416 57.4428C77.6077 58.5706 77.8476 59.7793 77.8476 60.9999V60.9999Z" fill="#2F2E41"/>
</svg>
